G04 #@! TF.FileFunction,Paste,Top*
%FSLAX46Y46*%
G04 Gerber Fmt 4.6, Leading zero omitted, Abs format (unit mm)*
G04 Created by KiCad (PCBNEW 4.0.7-e2-6376~58~ubuntu16.04.1) date Sat Dec  2 15:32:51 2017*
%MOMM*%
%LPD*%
G01*
G04 APERTURE LIST*
%ADD10C,0.100000*%
%ADD11R,1.200000X0.750000*%
%ADD12R,0.750000X1.200000*%
%ADD13R,1.500000X1.250000*%
%ADD14R,1.800000X0.500000*%
%ADD15R,1.900000X1.500000*%
%ADD16R,0.400000X2.000000*%
%ADD17R,1.200000X0.900000*%
%ADD18R,0.900000X1.200000*%
%ADD19R,0.800000X0.500000*%
%ADD20R,0.800000X0.400000*%
%ADD21R,1.600000X2.180000*%
%ADD22R,1.120000X0.300000*%
%ADD23R,0.300000X1.120000*%
%ADD24R,0.300000X1.500000*%
%ADD25R,3.000000X3.000000*%
%ADD26R,1.800000X2.100000*%
%ADD27R,2.100000X1.800000*%
%ADD28C,1.000000*%
G04 APERTURE END LIST*
D10*
D11*
X47513200Y-91440000D03*
X49413200Y-91440000D03*
X49413200Y-99568000D03*
X47513200Y-99568000D03*
X49413200Y-88773000D03*
X47513200Y-88773000D03*
D12*
X72771000Y-112207000D03*
X72771000Y-114107000D03*
D11*
X83337400Y-87477600D03*
X85237400Y-87477600D03*
X83403400Y-93954600D03*
X85303400Y-93954600D03*
D12*
X74930000Y-112207000D03*
X74930000Y-114107000D03*
X64617600Y-112196800D03*
X64617600Y-114096800D03*
X83337400Y-98287800D03*
X83337400Y-100187800D03*
X83337400Y-105222000D03*
X83337400Y-107122000D03*
D11*
X59344600Y-79451200D03*
X57444600Y-79451200D03*
D12*
X69596000Y-112181600D03*
X69596000Y-114081600D03*
D11*
X59141400Y-111125000D03*
X57241400Y-111125000D03*
X49464000Y-105156000D03*
X47564000Y-105156000D03*
X47564000Y-113284000D03*
X49464000Y-113284000D03*
D13*
X76118400Y-78638400D03*
X78618400Y-78638400D03*
D14*
X90042400Y-85583200D03*
X90042400Y-86683200D03*
X90042400Y-87783200D03*
X90042400Y-88883200D03*
X90042400Y-89983200D03*
X90042400Y-91083200D03*
X90042400Y-92183200D03*
X90042400Y-93283200D03*
X90042400Y-84383200D03*
X90042400Y-83383200D03*
D15*
X97942400Y-95453200D03*
X97942400Y-81553200D03*
D16*
X95940400Y-76631600D03*
X95290400Y-76631600D03*
X94640400Y-76631600D03*
X93990400Y-76631600D03*
X93340400Y-76631600D03*
D17*
X49614000Y-102108000D03*
X47414000Y-102108000D03*
D18*
X53873400Y-113901400D03*
X53873400Y-111701400D03*
D19*
X79690800Y-115931800D03*
D20*
X79690800Y-114331800D03*
X79690800Y-115131800D03*
D19*
X79690800Y-113531800D03*
D20*
X77890800Y-115131800D03*
D19*
X77890800Y-115931800D03*
D20*
X77890800Y-114331800D03*
D19*
X77890800Y-113531800D03*
X77890800Y-117291000D03*
D20*
X77890800Y-118891000D03*
X77890800Y-118091000D03*
D19*
X77890800Y-119691000D03*
D20*
X79690800Y-118091000D03*
D19*
X79690800Y-117291000D03*
D20*
X79690800Y-118891000D03*
D19*
X79690800Y-119691000D03*
X82473800Y-113487200D03*
D20*
X82473800Y-115087200D03*
X82473800Y-114287200D03*
D19*
X82473800Y-115887200D03*
D20*
X84273800Y-114287200D03*
D19*
X84273800Y-113487200D03*
D20*
X84273800Y-115087200D03*
D19*
X84273800Y-115887200D03*
X82477200Y-109651800D03*
D20*
X82477200Y-111251800D03*
X82477200Y-110451800D03*
D19*
X82477200Y-112051800D03*
D20*
X84277200Y-110451800D03*
D19*
X84277200Y-109651800D03*
D20*
X84277200Y-111251800D03*
D19*
X84277200Y-112051800D03*
X82462800Y-117316400D03*
D20*
X82462800Y-118916400D03*
X82462800Y-118116400D03*
D19*
X82462800Y-119716400D03*
D20*
X84262800Y-118116400D03*
D19*
X84262800Y-117316400D03*
D20*
X84262800Y-118916400D03*
D19*
X84262800Y-119716400D03*
X68289600Y-117316400D03*
D20*
X68289600Y-118916400D03*
X68289600Y-118116400D03*
D19*
X68289600Y-119716400D03*
D20*
X70089600Y-118116400D03*
D19*
X70089600Y-117316400D03*
D20*
X70089600Y-118916400D03*
D19*
X70089600Y-119716400D03*
X73003000Y-117310000D03*
D20*
X73003000Y-118910000D03*
X73003000Y-118110000D03*
D19*
X73003000Y-119710000D03*
D20*
X74803000Y-118110000D03*
D19*
X74803000Y-117310000D03*
D20*
X74803000Y-118910000D03*
D19*
X74803000Y-119710000D03*
D21*
X48412400Y-76080400D03*
X48412400Y-85260400D03*
D22*
X54690000Y-84500000D03*
X54690000Y-85000000D03*
X54690000Y-85500000D03*
X54690000Y-86000000D03*
X54690000Y-86500000D03*
X54690000Y-87000000D03*
X54690000Y-87500000D03*
X54690000Y-88000000D03*
X54690000Y-88500000D03*
X54690000Y-89000000D03*
X54690000Y-89500000D03*
X54690000Y-90000000D03*
X54690000Y-90500000D03*
X54690000Y-91000000D03*
X54690000Y-91500000D03*
X54690000Y-92000000D03*
X54690000Y-92500000D03*
X54690000Y-93000000D03*
X54690000Y-93500000D03*
X54690000Y-94000000D03*
X54690000Y-94500000D03*
X54690000Y-95000000D03*
X54690000Y-95500000D03*
X54690000Y-96000000D03*
X54690000Y-96500000D03*
X54690000Y-97000000D03*
X54690000Y-97500000D03*
X54690000Y-98000000D03*
X54690000Y-98500000D03*
X54690000Y-99000000D03*
X54690000Y-99500000D03*
X54690000Y-100000000D03*
X54690000Y-100500000D03*
X54690000Y-101000000D03*
X54690000Y-101500000D03*
X54690000Y-102000000D03*
X54690000Y-102500000D03*
X54690000Y-103000000D03*
X54690000Y-103500000D03*
X54690000Y-104000000D03*
X54690000Y-104500000D03*
X54690000Y-105000000D03*
X54690000Y-105500000D03*
X54690000Y-106000000D03*
D23*
X56560000Y-107870000D03*
X57060000Y-107870000D03*
X57560000Y-107870000D03*
X58060000Y-107870000D03*
X58560000Y-107870000D03*
X59060000Y-107870000D03*
X59560000Y-107870000D03*
X60060000Y-107870000D03*
X60560000Y-107870000D03*
X61060000Y-107870000D03*
X61560000Y-107870000D03*
X62060000Y-107870000D03*
X62560000Y-107870000D03*
X63060000Y-107870000D03*
X63560000Y-107870000D03*
X64060000Y-107870000D03*
X64560000Y-107870000D03*
X65060000Y-107870000D03*
X65560000Y-107870000D03*
X66060000Y-107870000D03*
X66560000Y-107870000D03*
X67060000Y-107870000D03*
X67560000Y-107870000D03*
X68060000Y-107870000D03*
X68560000Y-107870000D03*
X69060000Y-107870000D03*
X69560000Y-107870000D03*
X70060000Y-107870000D03*
X70560000Y-107870000D03*
X71060000Y-107870000D03*
X71560000Y-107870000D03*
X72060000Y-107870000D03*
X72560000Y-107870000D03*
X73060000Y-107870000D03*
X73560000Y-107870000D03*
X74060000Y-107870000D03*
X74560000Y-107870000D03*
X75060000Y-107870000D03*
X75560000Y-107870000D03*
X76060000Y-107870000D03*
X76560000Y-107870000D03*
X77060000Y-107870000D03*
X77560000Y-107870000D03*
X78060000Y-107870000D03*
D22*
X79930000Y-106000000D03*
X79930000Y-105500000D03*
X79930000Y-105000000D03*
X79930000Y-104500000D03*
X79930000Y-104000000D03*
X79930000Y-103500000D03*
X79930000Y-103000000D03*
X79930000Y-102500000D03*
X79930000Y-102000000D03*
X79930000Y-101500000D03*
X79930000Y-101000000D03*
X79930000Y-100500000D03*
X79930000Y-100000000D03*
X79930000Y-99500000D03*
X79930000Y-99000000D03*
X79930000Y-98500000D03*
X79930000Y-98000000D03*
X79930000Y-97500000D03*
X79930000Y-97000000D03*
X79930000Y-96500000D03*
X79930000Y-96000000D03*
X79930000Y-95500000D03*
X79930000Y-95000000D03*
X79930000Y-94500000D03*
X79930000Y-94000000D03*
X79930000Y-93500000D03*
X79930000Y-93000000D03*
X79930000Y-92500000D03*
X79930000Y-92000000D03*
X79930000Y-91500000D03*
X79930000Y-91000000D03*
X79930000Y-90500000D03*
X79930000Y-90000000D03*
X79930000Y-89500000D03*
X79930000Y-89000000D03*
X79930000Y-88500000D03*
X79930000Y-88000000D03*
X79930000Y-87500000D03*
X79930000Y-87000000D03*
X79930000Y-86500000D03*
X79930000Y-86000000D03*
X79930000Y-85500000D03*
X79930000Y-85000000D03*
X79930000Y-84500000D03*
D23*
X78060000Y-82630000D03*
X77560000Y-82630000D03*
X77060000Y-82630000D03*
X76560000Y-82630000D03*
X76060000Y-82630000D03*
X75560000Y-82630000D03*
X75060000Y-82630000D03*
X74560000Y-82630000D03*
X74060000Y-82630000D03*
X73560000Y-82630000D03*
X73060000Y-82630000D03*
X72560000Y-82630000D03*
X72060000Y-82630000D03*
X71560000Y-82630000D03*
X71060000Y-82630000D03*
X70560000Y-82630000D03*
X70060000Y-82630000D03*
X69560000Y-82630000D03*
X69060000Y-82630000D03*
X68560000Y-82630000D03*
X68060000Y-82630000D03*
X67560000Y-82630000D03*
X67060000Y-82630000D03*
X66560000Y-82630000D03*
X66060000Y-82630000D03*
X65560000Y-82630000D03*
X65060000Y-82630000D03*
X64560000Y-82630000D03*
X64060000Y-82630000D03*
X63560000Y-82630000D03*
X63060000Y-82630000D03*
X62560000Y-82630000D03*
X62060000Y-82630000D03*
X61560000Y-82630000D03*
X61060000Y-82630000D03*
X60560000Y-82630000D03*
X60060000Y-82630000D03*
X59560000Y-82630000D03*
X59060000Y-82630000D03*
X58560000Y-82630000D03*
X58060000Y-82630000D03*
X57560000Y-82630000D03*
X57060000Y-82630000D03*
X56560000Y-82630000D03*
D24*
X72050800Y-76860400D03*
X71550800Y-76860400D03*
X71050800Y-76860400D03*
X70550800Y-76860400D03*
X70050800Y-76860400D03*
X69550800Y-76860400D03*
X69050800Y-76860400D03*
X68550800Y-76860400D03*
X68050800Y-76860400D03*
X67550800Y-76860400D03*
X67050800Y-76860400D03*
X66550800Y-76860400D03*
X66050800Y-76860400D03*
X65550800Y-76860400D03*
X65050800Y-76860400D03*
X64550800Y-76860400D03*
X64050800Y-76860400D03*
X63550800Y-76860400D03*
X63050800Y-76860400D03*
X62550800Y-76860400D03*
X62050800Y-76860400D03*
X61550800Y-76860400D03*
X61050800Y-76860400D03*
X60550800Y-76860400D03*
D25*
X74550800Y-74360400D03*
X58050800Y-74360400D03*
D26*
X47313200Y-94054000D03*
X47313200Y-96954000D03*
X49613200Y-96954000D03*
X49613200Y-94054000D03*
D27*
X49964000Y-108070000D03*
X47064000Y-108070000D03*
X47064000Y-110370000D03*
X49964000Y-110370000D03*
D17*
X52189200Y-75844400D03*
X54389200Y-75844400D03*
X52189200Y-79451200D03*
X54389200Y-79451200D03*
D28*
X64406780Y-78737460D03*
X76438760Y-110528100D03*
X64947800Y-80683100D03*
X65636140Y-79405480D03*
M02*
