G04 #@! TF.FileFunction,Paste,Bot*
%FSLAX46Y46*%
G04 Gerber Fmt 4.6, Leading zero omitted, Abs format (unit mm)*
G04 Created by KiCad (PCBNEW 4.0.7-e2-6376~58~ubuntu16.04.1) date Sat Dec  2 15:32:51 2017*
%MOMM*%
%LPD*%
G01*
G04 APERTURE LIST*
%ADD10C,0.100000*%
%ADD11R,0.900000X1.200000*%
%ADD12R,1.200000X0.750000*%
%ADD13R,0.750000X1.200000*%
%ADD14R,1.500000X1.250000*%
%ADD15R,1.250000X1.500000*%
%ADD16R,1.500000X1.300000*%
%ADD17R,1.200000X0.900000*%
%ADD18R,0.800000X0.500000*%
%ADD19R,0.800000X0.400000*%
%ADD20R,0.500000X0.800000*%
%ADD21R,0.400000X0.800000*%
%ADD22O,0.300000X1.400000*%
%ADD23O,1.450000X0.500000*%
%ADD24R,0.800000X1.900000*%
%ADD25R,0.850000X0.300000*%
%ADD26R,0.300000X0.850000*%
%ADD27R,0.780000X0.780000*%
%ADD28R,3.800000X2.000000*%
%ADD29R,1.500000X2.000000*%
%ADD30C,1.000000*%
G04 APERTURE END LIST*
D10*
D11*
X68427600Y-118762600D03*
X68427600Y-120962600D03*
X49098200Y-116543000D03*
X49098200Y-114343000D03*
D12*
X53680400Y-93370400D03*
X51780400Y-93370400D03*
X77129600Y-81508600D03*
X79029600Y-81508600D03*
X53680400Y-88595200D03*
X51780400Y-88595200D03*
X53680400Y-98501200D03*
X51780400Y-98501200D03*
D13*
X82118200Y-123073200D03*
X82118200Y-121173200D03*
X84353400Y-123073200D03*
X84353400Y-121173200D03*
X86639400Y-123073200D03*
X86639400Y-121173200D03*
X70637400Y-120838000D03*
X70637400Y-118938000D03*
X74803000Y-120838000D03*
X74803000Y-118938000D03*
D12*
X48935600Y-102666800D03*
X50835600Y-102666800D03*
X48935600Y-104851200D03*
X50835600Y-104851200D03*
D14*
X59532200Y-111937800D03*
X62032200Y-111937800D03*
D13*
X56438800Y-112765800D03*
X56438800Y-114665800D03*
X57048400Y-75422800D03*
X57048400Y-73522800D03*
D15*
X54406800Y-75722800D03*
X54406800Y-73222800D03*
D16*
X59432200Y-114706400D03*
X62132200Y-114706400D03*
D17*
X75928400Y-108102400D03*
X73728400Y-108102400D03*
D11*
X72745600Y-118788000D03*
X72745600Y-120988000D03*
X56235600Y-81389400D03*
X56235600Y-79189400D03*
D17*
X58945600Y-81330800D03*
X61145600Y-81330800D03*
X58869400Y-79425800D03*
X61069400Y-79425800D03*
D11*
X65633600Y-118737200D03*
X65633600Y-120937200D03*
X63093600Y-118737200D03*
X63093600Y-120937200D03*
D18*
X79665400Y-117367200D03*
D19*
X79665400Y-118967200D03*
X79665400Y-118167200D03*
D18*
X79665400Y-119767200D03*
D19*
X77865400Y-118167200D03*
D18*
X77865400Y-117367200D03*
D19*
X77865400Y-118967200D03*
D18*
X77865400Y-119767200D03*
X77865400Y-112071000D03*
D19*
X77865400Y-110471000D03*
X77865400Y-111271000D03*
D18*
X77865400Y-109671000D03*
D19*
X79665400Y-111271000D03*
D18*
X79665400Y-112071000D03*
D19*
X79665400Y-110471000D03*
D18*
X79665400Y-109671000D03*
X79665400Y-113531800D03*
D19*
X79665400Y-115131800D03*
X79665400Y-114331800D03*
D18*
X79665400Y-115931800D03*
D19*
X77865400Y-114331800D03*
D18*
X77865400Y-113531800D03*
D19*
X77865400Y-115131800D03*
D18*
X77865400Y-115931800D03*
X70104000Y-113563400D03*
D19*
X70104000Y-115163400D03*
X70104000Y-114363400D03*
D18*
X70104000Y-115963400D03*
D19*
X68304000Y-114363400D03*
D18*
X68304000Y-113563400D03*
D19*
X68304000Y-115163400D03*
D18*
X68304000Y-115963400D03*
D20*
X54172000Y-125490400D03*
D21*
X55772000Y-125490400D03*
X54972000Y-125490400D03*
D20*
X56572000Y-125490400D03*
D21*
X54972000Y-127290400D03*
D20*
X54172000Y-127290400D03*
D21*
X55772000Y-127290400D03*
D20*
X56572000Y-127290400D03*
D22*
X85386800Y-105115400D03*
X84886800Y-105115400D03*
X84386800Y-105115400D03*
X83886800Y-105115400D03*
X83386800Y-105115400D03*
X82886800Y-105115400D03*
X82386800Y-105115400D03*
X81886800Y-105115400D03*
X81386800Y-105115400D03*
X80886800Y-105115400D03*
X80386800Y-105115400D03*
X79886800Y-105115400D03*
X79386800Y-105115400D03*
X78886800Y-105115400D03*
X78386800Y-105115400D03*
X77886800Y-105115400D03*
X77386800Y-105115400D03*
X76886800Y-105115400D03*
X76386800Y-105115400D03*
X75886800Y-105115400D03*
X75386800Y-105115400D03*
X74886800Y-105115400D03*
X74386800Y-105115400D03*
X73886800Y-105115400D03*
X73886800Y-85115400D03*
X74386800Y-85115400D03*
X74886800Y-85115400D03*
X75386800Y-85115400D03*
X75886800Y-85115400D03*
X76386800Y-85115400D03*
X76886800Y-85115400D03*
X77386800Y-85115400D03*
X77886800Y-85115400D03*
X78386800Y-85115400D03*
X78886800Y-85115400D03*
X79386800Y-85115400D03*
X79886800Y-85115400D03*
X80386800Y-85115400D03*
X80886800Y-85115400D03*
X81386800Y-85115400D03*
X81886800Y-85115400D03*
X82386800Y-85115400D03*
X82886800Y-85115400D03*
X83386800Y-85115400D03*
X83886800Y-85115400D03*
X84386800Y-85115400D03*
X84886800Y-85115400D03*
X85386800Y-85115400D03*
D23*
X70129400Y-84683600D03*
X70129400Y-85483600D03*
X70129400Y-86283600D03*
X70129400Y-87083600D03*
X70129400Y-87883600D03*
X70129400Y-88683600D03*
X70129400Y-89483600D03*
X70129400Y-90283600D03*
X70129400Y-91083600D03*
X70129400Y-91883600D03*
X70129400Y-92683600D03*
X70129400Y-93483600D03*
X70129400Y-94283600D03*
X70129400Y-95083600D03*
X70129400Y-95883600D03*
X70129400Y-96683600D03*
X70129400Y-97483600D03*
X70129400Y-98283600D03*
X70129400Y-99083600D03*
X70129400Y-99883600D03*
X70129400Y-100683600D03*
X70129400Y-101483600D03*
X70129400Y-102283600D03*
X70129400Y-103083600D03*
X70129400Y-103883600D03*
X70129400Y-104683600D03*
X70129400Y-105483600D03*
X58829400Y-105483600D03*
X58829400Y-104683600D03*
X58829400Y-103883600D03*
X58829400Y-103083600D03*
X58829400Y-102283600D03*
X58829400Y-101483600D03*
X58829400Y-100683600D03*
X58829400Y-99883600D03*
X58829400Y-99083600D03*
X58829400Y-98283600D03*
X58829400Y-97483600D03*
X58829400Y-96683600D03*
X58829400Y-95883600D03*
X58829400Y-95083600D03*
X58829400Y-94283600D03*
X58829400Y-93483600D03*
X58829400Y-92683600D03*
X58829400Y-91883600D03*
X58829400Y-91083600D03*
X58829400Y-90283600D03*
X58829400Y-89483600D03*
X58829400Y-88683600D03*
X58829400Y-87883600D03*
X58829400Y-87083600D03*
X58829400Y-86283600D03*
X58829400Y-85483600D03*
X58829400Y-84683600D03*
D24*
X59781400Y-73277600D03*
X61681400Y-73277600D03*
X60731400Y-76277600D03*
X68595200Y-73303000D03*
X70495200Y-73303000D03*
X69545200Y-76303000D03*
X64150200Y-73277600D03*
X66050200Y-73277600D03*
X65100200Y-76277600D03*
D25*
X50475600Y-110927200D03*
X50475600Y-110427200D03*
X50475600Y-109927200D03*
X50475600Y-109427200D03*
X50475600Y-108927200D03*
X50475600Y-108427200D03*
D26*
X51175600Y-107727200D03*
X51675600Y-107727200D03*
X52175600Y-107727200D03*
X52675600Y-107727200D03*
X53175600Y-107727200D03*
X53675600Y-107727200D03*
D25*
X54375600Y-108427200D03*
X54375600Y-108927200D03*
X54375600Y-109427200D03*
X54375600Y-109927200D03*
X54375600Y-110427200D03*
X54375600Y-110927200D03*
D26*
X53675600Y-111627200D03*
X53175600Y-111627200D03*
X52675600Y-111627200D03*
X52175600Y-111627200D03*
X51675600Y-111627200D03*
X51175600Y-111627200D03*
D27*
X53075600Y-109027200D03*
X53075600Y-110327200D03*
X51775600Y-109027200D03*
X51775600Y-110327200D03*
D28*
X77026800Y-72846400D03*
D29*
X77026800Y-79146400D03*
X74726800Y-79146400D03*
X79326800Y-79146400D03*
D18*
X95874000Y-86950400D03*
D19*
X95874000Y-85350400D03*
X95874000Y-86150400D03*
D18*
X95874000Y-84550400D03*
D19*
X97674000Y-86150400D03*
D18*
X97674000Y-86950400D03*
D19*
X97674000Y-85350400D03*
D18*
X97674000Y-84550400D03*
X97674000Y-89478000D03*
D19*
X97674000Y-91078000D03*
X97674000Y-90278000D03*
D18*
X97674000Y-91878000D03*
D19*
X95874000Y-90278000D03*
D18*
X95874000Y-89478000D03*
D19*
X95874000Y-91078000D03*
D18*
X95874000Y-91878000D03*
D17*
X51442800Y-80822800D03*
X49242800Y-80822800D03*
X51442800Y-78790800D03*
X49242800Y-78790800D03*
X51442800Y-76758800D03*
X49242800Y-76758800D03*
X51442800Y-74726800D03*
X49242800Y-74726800D03*
D18*
X49406400Y-85204000D03*
D19*
X49406400Y-83604000D03*
X49406400Y-84404000D03*
D18*
X49406400Y-82804000D03*
D19*
X51206400Y-84404000D03*
D18*
X51206400Y-85204000D03*
D19*
X51206400Y-83604000D03*
D18*
X51206400Y-82804000D03*
D30*
X57127140Y-97840800D03*
X71930260Y-97871280D03*
X55864760Y-107868720D03*
M02*
