G04 #@! TF.FileFunction,Soldermask,Bot*
%FSLAX46Y46*%
G04 Gerber Fmt 4.6, Leading zero omitted, Abs format (unit mm)*
G04 Created by KiCad (PCBNEW 4.0.7-e2-6376~58~ubuntu16.04.1) date Fri Jan 26 09:39:30 2018*
%MOMM*%
%LPD*%
G01*
G04 APERTURE LIST*
%ADD10C,0.100000*%
%ADD11R,0.900000X1.200000*%
%ADD12R,0.800000X1.200000*%
%ADD13R,1.400000X1.070000*%
%ADD14C,2.250000*%
%ADD15O,1.650000X1.350000*%
%ADD16O,1.400000X1.950000*%
%ADD17C,1.790000*%
%ADD18C,2.000000*%
%ADD19C,3.650000*%
%ADD20C,2.900000*%
%ADD21O,0.700000X1.800000*%
%ADD22O,1.850000X0.900000*%
%ADD23O,2.000000X3.000000*%
%ADD24C,2.127200*%
%ADD25C,5.980000*%
%ADD26R,1.245000X1.400000*%
%ADD27R,1.400000X1.245000*%
%ADD28R,1.900000X1.545000*%
%ADD29R,2.100000X2.100000*%
%ADD30O,2.100000X2.100000*%
%ADD31C,1.400000*%
%ADD32R,1.545000X1.900000*%
%ADD33R,1.200000X0.900000*%
%ADD34R,1.200000X0.800000*%
%ADD35R,1.200000X2.200000*%
%ADD36R,1.250000X0.700000*%
%ADD37R,0.700000X1.250000*%
%ADD38R,3.000000X3.000000*%
%ADD39R,4.200000X2.400000*%
%ADD40R,1.900000X2.400000*%
%ADD41C,4.900000*%
G04 APERTURE END LIST*
D10*
D11*
X47600000Y-88000000D03*
D12*
X49200000Y-88000000D03*
X48400000Y-88000000D03*
D11*
X50000000Y-88000000D03*
D12*
X48400000Y-89800000D03*
D11*
X47600000Y-89800000D03*
D12*
X49200000Y-89800000D03*
D11*
X50000000Y-89800000D03*
D13*
X52900000Y-83625000D03*
X52900000Y-85375000D03*
D14*
X92842400Y-93483200D03*
X92842400Y-83523200D03*
D15*
X90600000Y-76550000D03*
X85600000Y-76550000D03*
D16*
X91600000Y-73850000D03*
X84600000Y-73850000D03*
D17*
X50927000Y-120906000D03*
X52197000Y-118366000D03*
X53467000Y-120906000D03*
X54737000Y-118366000D03*
X56007000Y-120906000D03*
X57277000Y-118366000D03*
X58547000Y-120906000D03*
X59817000Y-118366000D03*
D18*
X48747000Y-132156000D03*
X51287000Y-132156000D03*
X59457000Y-132156000D03*
X61997000Y-132156000D03*
D19*
X49657000Y-127256000D03*
X61087000Y-127256000D03*
D20*
X63117000Y-124206000D03*
X47627000Y-124206000D03*
D21*
X85386800Y-105115400D03*
X84886800Y-105115400D03*
X84386800Y-105115400D03*
X83886800Y-105115400D03*
X83386800Y-105115400D03*
X82886800Y-105115400D03*
X82386800Y-105115400D03*
X81886800Y-105115400D03*
X81386800Y-105115400D03*
X80886800Y-105115400D03*
X80386800Y-105115400D03*
X79886800Y-105115400D03*
X79386800Y-105115400D03*
X78886800Y-105115400D03*
X78386800Y-105115400D03*
X77886800Y-105115400D03*
X77386800Y-105115400D03*
X76886800Y-105115400D03*
X76386800Y-105115400D03*
X75886800Y-105115400D03*
X75386800Y-105115400D03*
X74886800Y-105115400D03*
X74386800Y-105115400D03*
X73886800Y-105115400D03*
X73886800Y-85115400D03*
X74386800Y-85115400D03*
X74886800Y-85115400D03*
X75386800Y-85115400D03*
X75886800Y-85115400D03*
X76386800Y-85115400D03*
X76886800Y-85115400D03*
X77386800Y-85115400D03*
X77886800Y-85115400D03*
X78386800Y-85115400D03*
X78886800Y-85115400D03*
X79386800Y-85115400D03*
X79886800Y-85115400D03*
X80386800Y-85115400D03*
X80886800Y-85115400D03*
X81386800Y-85115400D03*
X81886800Y-85115400D03*
X82386800Y-85115400D03*
X82886800Y-85115400D03*
X83386800Y-85115400D03*
X83886800Y-85115400D03*
X84386800Y-85115400D03*
X84886800Y-85115400D03*
X85386800Y-85115400D03*
D22*
X70129400Y-84683600D03*
X70129400Y-85483600D03*
X70129400Y-86283600D03*
X70129400Y-87083600D03*
X70129400Y-87883600D03*
X70129400Y-88683600D03*
X70129400Y-89483600D03*
X70129400Y-90283600D03*
X70129400Y-91083600D03*
X70129400Y-91883600D03*
X70129400Y-92683600D03*
X70129400Y-93483600D03*
X70129400Y-94283600D03*
X70129400Y-95083600D03*
X70129400Y-95883600D03*
X70129400Y-96683600D03*
X70129400Y-97483600D03*
X70129400Y-98283600D03*
X70129400Y-99083600D03*
X70129400Y-99883600D03*
X70129400Y-100683600D03*
X70129400Y-101483600D03*
X70129400Y-102283600D03*
X70129400Y-103083600D03*
X70129400Y-103883600D03*
X70129400Y-104683600D03*
X70129400Y-105483600D03*
X58829400Y-105483600D03*
X58829400Y-104683600D03*
X58829400Y-103883600D03*
X58829400Y-103083600D03*
X58829400Y-102283600D03*
X58829400Y-101483600D03*
X58829400Y-100683600D03*
X58829400Y-99883600D03*
X58829400Y-99083600D03*
X58829400Y-98283600D03*
X58829400Y-97483600D03*
X58829400Y-96683600D03*
X58829400Y-95883600D03*
X58829400Y-95083600D03*
X58829400Y-94283600D03*
X58829400Y-93483600D03*
X58829400Y-92683600D03*
X58829400Y-91883600D03*
X58829400Y-91083600D03*
X58829400Y-90283600D03*
X58829400Y-89483600D03*
X58829400Y-88683600D03*
X58829400Y-87883600D03*
X58829400Y-87083600D03*
X58829400Y-86283600D03*
X58829400Y-85483600D03*
X58829400Y-84683600D03*
D18*
X88743800Y-108563800D03*
X88743800Y-106063800D03*
X88743800Y-104063800D03*
X88743800Y-101563800D03*
X91363800Y-108563800D03*
X91363800Y-106063800D03*
X91363800Y-104063800D03*
X91363800Y-101563800D03*
D20*
X94423800Y-111633800D03*
X94423800Y-98493800D03*
X88393800Y-111633800D03*
X88393800Y-98493800D03*
D23*
X99829620Y-119649240D03*
X93629620Y-119649240D03*
X88029620Y-119649240D03*
X97329620Y-121649240D03*
X91729620Y-121649240D03*
D24*
X86715000Y-127020000D03*
X84429000Y-127020000D03*
X82143000Y-127020000D03*
X79857000Y-127020000D03*
X77571000Y-127020000D03*
X87858000Y-129000000D03*
X85572000Y-129000000D03*
X83286000Y-129000000D03*
X81000000Y-129000000D03*
X78714000Y-129000000D03*
X86715000Y-130980000D03*
X84429000Y-130980000D03*
X82143000Y-130980000D03*
X79857000Y-130980000D03*
X77571000Y-130980000D03*
D25*
X94893800Y-129000000D03*
X69900200Y-129000000D03*
D26*
X53692900Y-93370400D03*
X51767900Y-93370400D03*
X75937500Y-83100000D03*
X77862500Y-83100000D03*
X53692900Y-88595200D03*
X51767900Y-88595200D03*
X53692900Y-98501200D03*
X51767900Y-98501200D03*
D27*
X82118200Y-123085700D03*
X82118200Y-121160700D03*
X84353400Y-123085700D03*
X84353400Y-121160700D03*
X86639400Y-123085700D03*
X86639400Y-121160700D03*
D26*
X74862500Y-122000000D03*
X72937500Y-122000000D03*
X74862500Y-119000000D03*
X72937500Y-119000000D03*
X48923100Y-102666800D03*
X50848100Y-102666800D03*
X48923100Y-104851200D03*
X50848100Y-104851200D03*
X59819700Y-111937800D03*
X61744700Y-111937800D03*
D27*
X56438800Y-112753300D03*
X56438800Y-114678300D03*
X57500000Y-75600000D03*
X57500000Y-73675000D03*
D28*
X55200000Y-75700000D03*
X55200000Y-73615000D03*
D13*
X51000000Y-83625000D03*
X51000000Y-85375000D03*
X49200000Y-83625000D03*
X49200000Y-85375000D03*
X47400000Y-83625000D03*
X47400000Y-85375000D03*
D29*
X81240000Y-78100000D03*
D30*
X78700000Y-78100000D03*
X81240000Y-75560000D03*
X78700000Y-75560000D03*
X81240000Y-73020000D03*
X78700000Y-73020000D03*
D31*
X57100000Y-97900000D03*
X71900000Y-97800000D03*
X55800000Y-107900000D03*
D32*
X59739700Y-114706400D03*
X61824700Y-114706400D03*
D26*
X75790900Y-108102400D03*
X73865900Y-108102400D03*
X72937500Y-120500000D03*
X74862500Y-120500000D03*
X72937500Y-117600000D03*
X74862500Y-117600000D03*
D27*
X56235600Y-81251900D03*
X56235600Y-79326900D03*
D26*
X59083100Y-81330800D03*
X61008100Y-81330800D03*
X59006900Y-79425800D03*
X60931900Y-79425800D03*
D27*
X64000000Y-118737500D03*
X64000000Y-120662500D03*
X62300000Y-118737500D03*
X62300000Y-120662500D03*
X49098200Y-116405500D03*
X49098200Y-114480500D03*
D33*
X79665400Y-117367200D03*
D34*
X79665400Y-118967200D03*
X79665400Y-118167200D03*
D33*
X79665400Y-119767200D03*
D34*
X77865400Y-118167200D03*
D33*
X77865400Y-117367200D03*
D34*
X77865400Y-118967200D03*
D33*
X77865400Y-119767200D03*
X77865400Y-112071000D03*
D34*
X77865400Y-110471000D03*
X77865400Y-111271000D03*
D33*
X77865400Y-109671000D03*
D34*
X79665400Y-111271000D03*
D33*
X79665400Y-112071000D03*
D34*
X79665400Y-110471000D03*
D33*
X79665400Y-109671000D03*
X79665400Y-113531800D03*
D34*
X79665400Y-115131800D03*
X79665400Y-114331800D03*
D33*
X79665400Y-115931800D03*
D34*
X77865400Y-114331800D03*
D33*
X77865400Y-113531800D03*
D34*
X77865400Y-115131800D03*
D33*
X77865400Y-115931800D03*
X73000000Y-116000000D03*
D34*
X73000000Y-114400000D03*
X73000000Y-115200000D03*
D33*
X73000000Y-113600000D03*
D34*
X74800000Y-115200000D03*
D33*
X74800000Y-116000000D03*
D34*
X74800000Y-114400000D03*
D33*
X74800000Y-113600000D03*
X70104000Y-113563400D03*
D34*
X70104000Y-115163400D03*
X70104000Y-114363400D03*
D33*
X70104000Y-115963400D03*
D34*
X68304000Y-114363400D03*
D33*
X68304000Y-113563400D03*
D34*
X68304000Y-115163400D03*
D33*
X68304000Y-115963400D03*
D11*
X54172000Y-125490400D03*
D12*
X55772000Y-125490400D03*
X54972000Y-125490400D03*
D11*
X56572000Y-125490400D03*
D12*
X54972000Y-127290400D03*
D11*
X54172000Y-127290400D03*
D12*
X55772000Y-127290400D03*
D11*
X56572000Y-127290400D03*
D33*
X95874000Y-86950400D03*
D34*
X95874000Y-85350400D03*
X95874000Y-86150400D03*
D33*
X95874000Y-84550400D03*
D34*
X97674000Y-86150400D03*
D33*
X97674000Y-86950400D03*
D34*
X97674000Y-85350400D03*
D33*
X97674000Y-84550400D03*
X97674000Y-89478000D03*
D34*
X97674000Y-91078000D03*
X97674000Y-90278000D03*
D33*
X97674000Y-91878000D03*
D34*
X95874000Y-90278000D03*
D33*
X95874000Y-89478000D03*
D34*
X95874000Y-91078000D03*
D33*
X95874000Y-91878000D03*
D35*
X64300000Y-72900000D03*
X66200000Y-72900000D03*
X65250000Y-76200000D03*
X60400000Y-72900000D03*
X62300000Y-72900000D03*
X61350000Y-76200000D03*
D36*
X50475600Y-110927200D03*
X50475600Y-110427200D03*
X50475600Y-109927200D03*
X50475600Y-109427200D03*
X50475600Y-108927200D03*
X50475600Y-108427200D03*
D37*
X51175600Y-107727200D03*
X51675600Y-107727200D03*
X52175600Y-107727200D03*
X52675600Y-107727200D03*
X53175600Y-107727200D03*
X53675600Y-107727200D03*
D36*
X54375600Y-108427200D03*
X54375600Y-108927200D03*
X54375600Y-109427200D03*
X54375600Y-109927200D03*
X54375600Y-110427200D03*
X54375600Y-110927200D03*
D37*
X53675600Y-111627200D03*
X53175600Y-111627200D03*
X52675600Y-111627200D03*
X52175600Y-111627200D03*
X51675600Y-111627200D03*
X51175600Y-111627200D03*
D38*
X52425600Y-109677200D03*
D39*
X72200000Y-79250000D03*
D40*
X72200000Y-72950000D03*
X74500000Y-72950000D03*
X69900000Y-72950000D03*
D41*
X48722000Y-74823200D03*
X97652800Y-74823200D03*
X68300000Y-121700000D03*
M02*
