M48
;DRILL file {KiCad 4.0.7-e2-6376~58~ubuntu16.04.1} date Fri Jan 26 09:39:48 2018
;FORMAT={-:-/ absolute / metric / decimal}
FMAT,2
METRIC,TZ
T1C0.300
T2C0.500
T3C0.550
T4C0.800
T5C0.890
T6C0.900
T7C1.000
T8C1.020
T9C1.630
T10C1.800
T11C2.300
T12C3.200
T13C3.250
T14C3.500
%
G90
G05
M71
T1
X46.787Y-118.288
X46.8Y-92.3
X47.168Y-114.706
X47.244Y-115.418
X47.5Y-96.9
X47.7Y-101.5
X47.7Y-112.2
X49.425Y-107.8
X49.987Y-112.039
X50.2Y-91.1
X50.7Y-99.5
X50.8Y-112.903
X50.927Y-106.324
X51.1Y-89.8
X51.232Y-116.459
X51.247Y-97.602
X51.6Y-105.9
X51.669Y-103.886
X51.776Y-109.027
X51.776Y-110.327
X51.8Y-95.
X51.867Y-115.849
X52.1Y-84.4
X52.222Y-90.424
X52.3Y-96.1
X52.451Y-101.371
X52.771Y-102.725
X52.8Y-86.6
X52.807Y-103.911
X52.832Y-89.814
X52.9Y-106.1
X53.061Y-91.846
X53.076Y-110.327
X53.1Y-100.9
X53.1Y-82.
X53.391Y-104.826
X53.416Y-97.13
X53.8Y-81.3
X54.331Y-115.265
X54.7Y-80.6
X55.027Y-82.974
X55.042Y-113.259
X55.143Y-114.732
X55.651Y-109.042
X55.7Y-107.1
X55.8Y-72.4
X56.176Y-101.711
X56.84Y-77.201
X57.003Y-96.738
X57.099Y-88.189
X57.163Y-89.327
X57.175Y-87.224
X57.216Y-90.802
X57.379Y-84.836
X57.396Y-92.029
X57.455Y-112.039
X57.48Y-80.594
X57.506Y-103.226
X57.531Y-104.572
X57.701Y-109.948
X57.76Y-114.503
X58.316Y-111.948
X58.946Y-80.416
X58.966Y-76.792
X59.309Y-109.855
X60.Y-78.8
X60.02Y-80.442
X60.046Y-105.308
X60.071Y-110.149
X60.649Y-95.333
X60.706Y-105.766
X60.833Y-114.706
X61.146Y-80.332
X61.265Y-97.587
X61.29Y-96.114
X61.366Y-113.233
X61.554Y-84.412
X62.128Y-117.094
X62.154Y-102.286
X62.2Y-78.3
X62.2Y-80.5
X62.245Y-98.007
X62.417Y-84.289
X62.499Y-85.209
X62.611Y-106.274
X62.7Y-78.8
X62.763Y-102.972
X62.8Y-74.9
X63.078Y-89.108
X63.084Y-103.761
X63.139Y-90.632
X63.145Y-89.864
X63.2Y-79.4
X63.203Y-97.252
X63.246Y-98.145
X63.424Y-111.802
X63.5Y-72.7
X63.602Y-112.7
X63.7Y-80.725
X63.7Y-75.1
X63.8Y-80.
X63.99Y-85.728
X64.008Y-96.393
X64.059Y-117.069
X64.107Y-97.342
X64.287Y-105.816
X64.483Y-86.363
X64.516Y-91.44
X64.567Y-99.695
X64.885Y-96.456
X64.897Y-106.451
X64.949Y-86.924
X64.973Y-95.529
X65.Y-78.2
X65.215Y-100.241
X65.351Y-109.67
X65.357Y-103.548
X65.397Y-87.467
X65.4Y-117.1
X65.532Y-92.456
X65.7Y-113.6
X65.768Y-99.517
X65.862Y-95.631
X65.902Y-110.101
X66.Y-78.3
X66.097Y-106.022
X66.197Y-103.415
X66.2Y-75.
X66.3Y-114.4
X66.339Y-85.025
X66.357Y-80.757
X66.365Y-100.076
X66.4Y-117.2
X66.459Y-84.3
X66.5Y-109.2
X66.8Y-78.1
X66.878Y-106.223
X66.96Y-104.618
X67.Y-75.5
X67.Y-80.2
X67.056Y-89.916
X67.148Y-109.77
X67.4Y-74.7
X67.462Y-105.105
X67.502Y-105.871
X67.7Y-72.3
X67.7Y-78.1
X68.3Y-74.6
X68.3Y-86.7
X68.3Y-111.9
X68.319Y-78.581
X68.4Y-84.3
X68.4Y-85.4
X68.478Y-91.186
X68.6Y-72.8
X68.692Y-93.525
X68.732Y-95.428
X68.758Y-109.347
X69.2Y-116.5
X69.5Y-79.475
X69.545Y-109.753
X69.799Y-106.604
X70.3Y-83.8
X70.538Y-80.738
X70.8Y-116.7
X70.968Y-109.626
X71.2Y-114.1
X71.3Y-74.9
X71.3Y-112.3
X71.8Y-80.7
X71.933Y-94.615
X72.2Y-74.1
X72.2Y-74.9
X72.461Y-94.138
X73.076Y-96.926
X73.1Y-77.7
X73.236Y-89.014
X73.254Y-88.113
X73.711Y-96.342
X73.787Y-100.355
X73.9Y-112.2
X73.9Y-116.7
X73.975Y-106.647
X74.207Y-80.907
X74.452Y-86.965
X74.498Y-99.035
X74.6Y-109.855
X74.8Y-78.3
X74.8Y-116.65
X74.982Y-87.495
X75.065Y-98.275
X75.108Y-103.124
X75.133Y-91.084
X75.2Y-80.9
X75.547Y-106.576
X75.667Y-99.898
X75.794Y-92.904
X75.867Y-111.829
X75.946Y-91.059
X75.951Y-98.268
X75.971Y-103.124
X76.Y-116.7
X76.43Y-93.927
X76.53Y-109.499
X76.606Y-91.694
X76.708Y-92.71
X76.987Y-90.373
X77.064Y-106.528
X77.224Y-99.205
X77.34Y-100.391
X77.521Y-91.923
X77.597Y-89.764
X77.6Y-80.9
X77.851Y-93.828
X77.948Y-92.819
X78.008Y-86.832
X78.115Y-99.637
X78.156Y-106.477
X78.163Y-100.841
X78.613Y-93.497
X78.715Y-86.385
X78.791Y-120.548
X79.052Y-82.662
X79.4Y-107.01
X79.751Y-108.394
X79.9Y-82.6
X79.905Y-83.5
X80.467Y-107.086
X80.936Y-116.752
X81.026Y-121.488
X81.1Y-82.9
X81.153Y-111.836
X81.356Y-107.112
X81.504Y-94.701
X81.712Y-96.545
X81.763Y-93.062
X81.9Y-82.3
X82.118Y-106.578
X82.293Y-93.96
X82.499Y-92.38
X83.045Y-108.336
X83.083Y-83.515
X83.223Y-95.169
X83.236Y-123.927
X83.543Y-82.743
X84.1Y-86.3
X84.303Y-96.342
X84.455Y-90.907
X84.455Y-102.235
X84.582Y-107.061
X84.607Y-100.594
X84.701Y-92.649
X85.09Y-95.885
X85.4Y-106.6
X85.547Y-123.876
X85.928Y-111.897
X86.289Y-122.023
X86.352Y-109.355
X86.36Y-97.79
X86.492Y-93.315
X87.981Y-94.366
X88.087Y-90.983
X88.113Y-89.992
X88.125Y-95.966
X88.138Y-86.716
X88.138Y-92.05
X88.189Y-85.649
X88.214Y-87.808
X88.24Y-84.252
X89.4Y-80.
X90.17Y-97.155
X90.424Y-112.268
X90.48Y-99.642
X90.8Y-80.5
X91.796Y-85.039
X91.948Y-110.744
X92.075Y-98.425
X92.18Y-85.944
X92.2Y-80.5
X92.405Y-89.992
X92.558Y-86.69
X92.583Y-87.528
X92.608Y-88.671
X93.04Y-90.576
X93.472Y-101.6
X93.472Y-103.632
X93.472Y-105.664
X93.6Y-80.5
X94.005Y-88.138
X97.674Y-88.138
T5
X50.927Y-120.906
X52.197Y-118.366
X53.467Y-120.906
X54.737Y-118.366
X56.007Y-120.906
X57.277Y-118.366
X58.547Y-120.906
X59.817Y-118.366
T6
X77.571Y-127.02
X77.571Y-130.98
X78.714Y-129.
X79.857Y-127.02
X79.857Y-130.98
X81.Y-129.
X82.143Y-127.02
X82.143Y-130.98
X83.286Y-129.
X84.429Y-127.02
X84.429Y-130.98
X85.572Y-129.
X86.715Y-127.02
X86.715Y-130.98
X87.858Y-129.
T7
X78.7Y-73.02
X78.7Y-75.56
X78.7Y-78.1
X81.24Y-73.02
X81.24Y-75.56
X81.24Y-78.1
X88.744Y-101.564
X88.744Y-104.064
X88.744Y-106.064
X88.744Y-108.564
X91.364Y-101.564
X91.364Y-104.064
X91.364Y-106.064
X91.364Y-108.564
T8
X48.747Y-132.156
X51.287Y-132.156
X59.457Y-132.156
X61.997Y-132.156
T9
X47.627Y-124.206
X63.117Y-124.206
T10
X92.842Y-83.523
X92.842Y-93.483
T11
X88.394Y-98.494
X88.394Y-111.634
X94.424Y-98.494
X94.424Y-111.634
T12
X69.9Y-129.
X94.894Y-129.
T13
X49.657Y-127.256
X61.087Y-127.256
T14
X48.722Y-74.823
X68.3Y-121.7
X97.653Y-74.823
T2
X84.6Y-73.525G85X84.6Y-74.175
G05
X91.6Y-73.525G85X91.6Y-74.175
G05
T3
X85.75Y-76.55G85X85.45Y-76.55
G05
X90.75Y-76.55G85X90.45Y-76.55
G05
T4
X88.03Y-120.149G85X88.03Y-119.149
G05
X91.73Y-122.149G85X91.73Y-121.149
G05
X93.63Y-120.149G85X93.63Y-119.149
G05
X97.33Y-122.149G85X97.33Y-121.149
G05
X99.83Y-120.149G85X99.83Y-119.149
G05
T0
M30
