G04 #@! TF.FileFunction,Paste,Top*
%FSLAX46Y46*%
G04 Gerber Fmt 4.6, Leading zero omitted, Abs format (unit mm)*
G04 Created by KiCad (PCBNEW 4.0.7-e2-6376~58~ubuntu16.04.1) date Fri Jan 26 09:39:30 2018*
%MOMM*%
%LPD*%
G01*
G04 APERTURE LIST*
%ADD10C,0.100000*%
%ADD11R,1.800000X0.500000*%
%ADD12R,1.900000X1.500000*%
%ADD13R,0.400000X2.000000*%
%ADD14R,0.300000X1.500000*%
%ADD15R,3.000000X3.000000*%
%ADD16R,1.420000X0.300000*%
%ADD17R,0.300000X1.420000*%
%ADD18R,0.845000X1.000000*%
%ADD19R,1.000000X0.845000*%
%ADD20R,1.145000X1.500000*%
%ADD21R,0.670000X1.000000*%
%ADD22C,1.000000*%
%ADD23R,0.800000X0.500000*%
%ADD24R,0.800000X0.400000*%
%ADD25R,1.120000X2.160000*%
%ADD26R,1.400000X1.200000*%
G04 APERTURE END LIST*
D10*
D11*
X90042400Y-85583200D03*
X90042400Y-86683200D03*
X90042400Y-87783200D03*
X90042400Y-88883200D03*
X90042400Y-89983200D03*
X90042400Y-91083200D03*
X90042400Y-92183200D03*
X90042400Y-93283200D03*
X90042400Y-84383200D03*
X90042400Y-83383200D03*
D12*
X97942400Y-95453200D03*
X97942400Y-81553200D03*
D13*
X89400000Y-76800000D03*
X88750000Y-76800000D03*
X88100000Y-76800000D03*
X87450000Y-76800000D03*
X86800000Y-76800000D03*
D14*
X72050800Y-76860400D03*
X71550800Y-76860400D03*
X71050800Y-76860400D03*
X70550800Y-76860400D03*
X70050800Y-76860400D03*
X69550800Y-76860400D03*
X69050800Y-76860400D03*
X68550800Y-76860400D03*
X68050800Y-76860400D03*
X67550800Y-76860400D03*
X67050800Y-76860400D03*
X66550800Y-76860400D03*
X66050800Y-76860400D03*
X65550800Y-76860400D03*
X65050800Y-76860400D03*
X64550800Y-76860400D03*
X64050800Y-76860400D03*
X63550800Y-76860400D03*
X63050800Y-76860400D03*
X62550800Y-76860400D03*
X62050800Y-76860400D03*
X61550800Y-76860400D03*
X61050800Y-76860400D03*
X60550800Y-76860400D03*
D15*
X74550800Y-74360400D03*
X58050800Y-74360400D03*
D16*
X54540000Y-84500000D03*
X54540000Y-85000000D03*
X54540000Y-85500000D03*
X54540000Y-86000000D03*
X54540000Y-86500000D03*
X54540000Y-87000000D03*
X54540000Y-87500000D03*
X54540000Y-88000000D03*
X54540000Y-88500000D03*
X54540000Y-89000000D03*
X54540000Y-89500000D03*
X54540000Y-90000000D03*
X54540000Y-90500000D03*
X54540000Y-91000000D03*
X54540000Y-91500000D03*
X54540000Y-92000000D03*
X54540000Y-92500000D03*
X54540000Y-93000000D03*
X54540000Y-93500000D03*
X54540000Y-94000000D03*
X54540000Y-94500000D03*
X54540000Y-95000000D03*
X54540000Y-95500000D03*
X54540000Y-96000000D03*
X54540000Y-96500000D03*
X54540000Y-97000000D03*
X54540000Y-97500000D03*
X54540000Y-98000000D03*
X54540000Y-98500000D03*
X54540000Y-99000000D03*
X54540000Y-99500000D03*
X54540000Y-100000000D03*
X54540000Y-100500000D03*
X54540000Y-101000000D03*
X54540000Y-101500000D03*
X54540000Y-102000000D03*
X54540000Y-102500000D03*
X54540000Y-103000000D03*
X54540000Y-103500000D03*
X54540000Y-104000000D03*
X54540000Y-104500000D03*
X54540000Y-105000000D03*
X54540000Y-105500000D03*
X54540000Y-106000000D03*
D17*
X56560000Y-108020000D03*
X57060000Y-108020000D03*
X57560000Y-108020000D03*
X58060000Y-108020000D03*
X58560000Y-108020000D03*
X59060000Y-108020000D03*
X59560000Y-108020000D03*
X60060000Y-108020000D03*
X60560000Y-108020000D03*
X61060000Y-108020000D03*
X61560000Y-108020000D03*
X62060000Y-108020000D03*
X62560000Y-108020000D03*
X63060000Y-108020000D03*
X63560000Y-108020000D03*
X64060000Y-108020000D03*
X64560000Y-108020000D03*
X65060000Y-108020000D03*
X65560000Y-108020000D03*
X66060000Y-108020000D03*
X66560000Y-108020000D03*
X67060000Y-108020000D03*
X67560000Y-108020000D03*
X68060000Y-108020000D03*
X68560000Y-108020000D03*
X69060000Y-108020000D03*
X69560000Y-108020000D03*
X70060000Y-108020000D03*
X70560000Y-108020000D03*
X71060000Y-108020000D03*
X71560000Y-108020000D03*
X72060000Y-108020000D03*
X72560000Y-108020000D03*
X73060000Y-108020000D03*
X73560000Y-108020000D03*
X74060000Y-108020000D03*
X74560000Y-108020000D03*
X75060000Y-108020000D03*
X75560000Y-108020000D03*
X76060000Y-108020000D03*
X76560000Y-108020000D03*
X77060000Y-108020000D03*
X77560000Y-108020000D03*
X78060000Y-108020000D03*
D16*
X80080000Y-106000000D03*
X80080000Y-105500000D03*
X80080000Y-105000000D03*
X80080000Y-104500000D03*
X80080000Y-104000000D03*
X80080000Y-103500000D03*
X80080000Y-103000000D03*
X80080000Y-102500000D03*
X80080000Y-102000000D03*
X80080000Y-101500000D03*
X80080000Y-101000000D03*
X80080000Y-100500000D03*
X80080000Y-100000000D03*
X80080000Y-99500000D03*
X80080000Y-99000000D03*
X80080000Y-98500000D03*
X80080000Y-98000000D03*
X80080000Y-97500000D03*
X80080000Y-97000000D03*
X80080000Y-96500000D03*
X80080000Y-96000000D03*
X80080000Y-95500000D03*
X80080000Y-95000000D03*
X80080000Y-94500000D03*
X80080000Y-94000000D03*
X80080000Y-93500000D03*
X80080000Y-93000000D03*
X80080000Y-92500000D03*
X80080000Y-92000000D03*
X80080000Y-91500000D03*
X80080000Y-91000000D03*
X80080000Y-90500000D03*
X80080000Y-90000000D03*
X80080000Y-89500000D03*
X80080000Y-89000000D03*
X80080000Y-88500000D03*
X80080000Y-88000000D03*
X80080000Y-87500000D03*
X80080000Y-87000000D03*
X80080000Y-86500000D03*
X80080000Y-86000000D03*
X80080000Y-85500000D03*
X80080000Y-85000000D03*
X80080000Y-84500000D03*
D17*
X78060000Y-82480000D03*
X77560000Y-82480000D03*
X77060000Y-82480000D03*
X76560000Y-82480000D03*
X76060000Y-82480000D03*
X75560000Y-82480000D03*
X75060000Y-82480000D03*
X74560000Y-82480000D03*
X74060000Y-82480000D03*
X73560000Y-82480000D03*
X73060000Y-82480000D03*
X72560000Y-82480000D03*
X72060000Y-82480000D03*
X71560000Y-82480000D03*
X71060000Y-82480000D03*
X70560000Y-82480000D03*
X70060000Y-82480000D03*
X69560000Y-82480000D03*
X69060000Y-82480000D03*
X68560000Y-82480000D03*
X68060000Y-82480000D03*
X67560000Y-82480000D03*
X67060000Y-82480000D03*
X66560000Y-82480000D03*
X66060000Y-82480000D03*
X65560000Y-82480000D03*
X65060000Y-82480000D03*
X64560000Y-82480000D03*
X64060000Y-82480000D03*
X63560000Y-82480000D03*
X63060000Y-82480000D03*
X62560000Y-82480000D03*
X62060000Y-82480000D03*
X61560000Y-82480000D03*
X61060000Y-82480000D03*
X60560000Y-82480000D03*
X60060000Y-82480000D03*
X59560000Y-82480000D03*
X59060000Y-82480000D03*
X58560000Y-82480000D03*
X58060000Y-82480000D03*
X57560000Y-82480000D03*
X57060000Y-82480000D03*
X56560000Y-82480000D03*
D18*
X47475000Y-95700000D03*
X49400000Y-95700000D03*
X49425000Y-102400000D03*
X47500000Y-102400000D03*
X49400000Y-93600000D03*
X47475000Y-93600000D03*
D19*
X72771000Y-112194500D03*
X72771000Y-114119500D03*
D18*
X83324900Y-87477600D03*
X85249900Y-87477600D03*
X83390900Y-93954600D03*
X85315900Y-93954600D03*
D19*
X74930000Y-112194500D03*
X74930000Y-114119500D03*
X64617600Y-112184300D03*
X64617600Y-114109300D03*
X83337400Y-98275300D03*
X83337400Y-100200300D03*
X83337400Y-105209500D03*
X83337400Y-107134500D03*
D18*
X59357100Y-79451200D03*
X57432100Y-79451200D03*
D19*
X69596000Y-112169100D03*
X69596000Y-114094100D03*
D18*
X59153900Y-111125000D03*
X57228900Y-111125000D03*
X49425000Y-106800000D03*
X47500000Y-106800000D03*
X47551500Y-113284000D03*
X49476500Y-113284000D03*
D20*
X73057500Y-79300000D03*
X75142500Y-79300000D03*
D21*
X53225000Y-73200000D03*
X54975000Y-73200000D03*
D22*
X64400000Y-79900000D03*
X76400000Y-110600000D03*
X67500000Y-79300000D03*
X65700000Y-79100000D03*
D18*
X49425000Y-104700000D03*
X47500000Y-104700000D03*
D19*
X53873400Y-113763900D03*
X53873400Y-111838900D03*
D18*
X53175000Y-75200000D03*
X55100000Y-75200000D03*
D23*
X79690800Y-115931800D03*
D24*
X79690800Y-114331800D03*
X79690800Y-115131800D03*
D23*
X79690800Y-113531800D03*
D24*
X77890800Y-115131800D03*
D23*
X77890800Y-115931800D03*
D24*
X77890800Y-114331800D03*
D23*
X77890800Y-113531800D03*
X77890800Y-117291000D03*
D24*
X77890800Y-118891000D03*
X77890800Y-118091000D03*
D23*
X77890800Y-119691000D03*
D24*
X79690800Y-118091000D03*
D23*
X79690800Y-117291000D03*
D24*
X79690800Y-118891000D03*
D23*
X79690800Y-119691000D03*
X82473800Y-113487200D03*
D24*
X82473800Y-115087200D03*
X82473800Y-114287200D03*
D23*
X82473800Y-115887200D03*
D24*
X84273800Y-114287200D03*
D23*
X84273800Y-113487200D03*
D24*
X84273800Y-115087200D03*
D23*
X84273800Y-115887200D03*
X82477200Y-109651800D03*
D24*
X82477200Y-111251800D03*
X82477200Y-110451800D03*
D23*
X82477200Y-112051800D03*
D24*
X84277200Y-110451800D03*
D23*
X84277200Y-109651800D03*
D24*
X84277200Y-111251800D03*
D23*
X84277200Y-112051800D03*
X82462800Y-117316400D03*
D24*
X82462800Y-118916400D03*
X82462800Y-118116400D03*
D23*
X82462800Y-119716400D03*
D24*
X84262800Y-118116400D03*
D23*
X84262800Y-117316400D03*
D24*
X84262800Y-118916400D03*
D23*
X84262800Y-119716400D03*
X73003000Y-117310000D03*
D24*
X73003000Y-118910000D03*
X73003000Y-118110000D03*
D23*
X73003000Y-119710000D03*
D24*
X74803000Y-118110000D03*
D23*
X74803000Y-117310000D03*
D24*
X74803000Y-118910000D03*
D23*
X74803000Y-119710000D03*
D25*
X48500000Y-84170000D03*
X48500000Y-90900000D03*
D26*
X49600000Y-98300000D03*
X47400000Y-98300000D03*
X47400000Y-100000000D03*
X49600000Y-100000000D03*
X49600000Y-109350000D03*
X47400000Y-109350000D03*
X47400000Y-111050000D03*
X49600000Y-111050000D03*
M02*
