G04 #@! TF.FileFunction,Legend,Bot*
%FSLAX46Y46*%
G04 Gerber Fmt 4.6, Leading zero omitted, Abs format (unit mm)*
G04 Created by KiCad (PCBNEW 4.0.7-e2-6376~58~ubuntu16.04.1) date Fri Jan 26 09:39:30 2018*
%MOMM*%
%LPD*%
G01*
G04 APERTURE LIST*
%ADD10C,0.100000*%
%ADD11C,0.200000*%
%ADD12C,0.180000*%
%ADD13C,0.160000*%
%ADD14C,0.150000*%
%ADD15C,0.300000*%
%ADD16C,0.500000*%
%ADD17C,0.120000*%
G04 APERTURE END LIST*
D10*
D11*
X72000000Y-111800000D02*
X64100000Y-111800000D01*
X72000000Y-108300000D02*
X72000000Y-111800000D01*
X64100000Y-108300000D02*
X72000000Y-108300000D01*
X64100000Y-111800000D02*
X64100000Y-108300000D01*
D12*
X71004762Y-109712381D02*
X71338096Y-109236190D01*
X71576191Y-109712381D02*
X71576191Y-108712381D01*
X71195238Y-108712381D01*
X71100000Y-108760000D01*
X71052381Y-108807619D01*
X71004762Y-108902857D01*
X71004762Y-109045714D01*
X71052381Y-109140952D01*
X71100000Y-109188571D01*
X71195238Y-109236190D01*
X71576191Y-109236190D01*
X70623810Y-109426667D02*
X70147619Y-109426667D01*
X70719048Y-109712381D02*
X70385715Y-108712381D01*
X70052381Y-109712381D01*
X69719048Y-109712381D02*
X69719048Y-108712381D01*
X69385714Y-109426667D01*
X69052381Y-108712381D01*
X69052381Y-109712381D01*
X66480952Y-109617143D02*
X66528571Y-109664762D01*
X66671428Y-109712381D01*
X66766666Y-109712381D01*
X66909524Y-109664762D01*
X67004762Y-109569524D01*
X67052381Y-109474286D01*
X67100000Y-109283810D01*
X67100000Y-109140952D01*
X67052381Y-108950476D01*
X67004762Y-108855238D01*
X66909524Y-108760000D01*
X66766666Y-108712381D01*
X66671428Y-108712381D01*
X66528571Y-108760000D01*
X66480952Y-108807619D01*
X66100000Y-109664762D02*
X65957143Y-109712381D01*
X65719047Y-109712381D01*
X65623809Y-109664762D01*
X65576190Y-109617143D01*
X65528571Y-109521905D01*
X65528571Y-109426667D01*
X65576190Y-109331429D01*
X65623809Y-109283810D01*
X65719047Y-109236190D01*
X65909524Y-109188571D01*
X66004762Y-109140952D01*
X66052381Y-109093333D01*
X66100000Y-108998095D01*
X66100000Y-108902857D01*
X66052381Y-108807619D01*
X66004762Y-108760000D01*
X65909524Y-108712381D01*
X65671428Y-108712381D01*
X65528571Y-108760000D01*
X64909524Y-108712381D02*
X64814285Y-108712381D01*
X64719047Y-108760000D01*
X64671428Y-108807619D01*
X64623809Y-108902857D01*
X64576190Y-109093333D01*
X64576190Y-109331429D01*
X64623809Y-109521905D01*
X64671428Y-109617143D01*
X64719047Y-109664762D01*
X64814285Y-109712381D01*
X64909524Y-109712381D01*
X65004762Y-109664762D01*
X65052381Y-109617143D01*
X65100000Y-109521905D01*
X65147619Y-109331429D01*
X65147619Y-109093333D01*
X65100000Y-108902857D01*
X65052381Y-108807619D01*
X65004762Y-108760000D01*
X64909524Y-108712381D01*
X71671429Y-111392381D02*
X71671429Y-110392381D01*
X71100000Y-111392381D01*
X71100000Y-110392381D01*
X70671429Y-111106667D02*
X70195238Y-111106667D01*
X70766667Y-111392381D02*
X70433334Y-110392381D01*
X70100000Y-111392381D01*
X69766667Y-111392381D02*
X69766667Y-110392381D01*
X69195238Y-111392381D01*
X69195238Y-110392381D01*
X68719048Y-111392381D02*
X68719048Y-110392381D01*
X68480953Y-110392381D01*
X68338095Y-110440000D01*
X68242857Y-110535238D01*
X68195238Y-110630476D01*
X68147619Y-110820952D01*
X68147619Y-110963810D01*
X68195238Y-111154286D01*
X68242857Y-111249524D01*
X68338095Y-111344762D01*
X68480953Y-111392381D01*
X68719048Y-111392381D01*
X66385714Y-111297143D02*
X66433333Y-111344762D01*
X66576190Y-111392381D01*
X66671428Y-111392381D01*
X66814286Y-111344762D01*
X66909524Y-111249524D01*
X66957143Y-111154286D01*
X67004762Y-110963810D01*
X67004762Y-110820952D01*
X66957143Y-110630476D01*
X66909524Y-110535238D01*
X66814286Y-110440000D01*
X66671428Y-110392381D01*
X66576190Y-110392381D01*
X66433333Y-110440000D01*
X66385714Y-110487619D01*
X66004762Y-111344762D02*
X65861905Y-111392381D01*
X65623809Y-111392381D01*
X65528571Y-111344762D01*
X65480952Y-111297143D01*
X65433333Y-111201905D01*
X65433333Y-111106667D01*
X65480952Y-111011429D01*
X65528571Y-110963810D01*
X65623809Y-110916190D01*
X65814286Y-110868571D01*
X65909524Y-110820952D01*
X65957143Y-110773333D01*
X66004762Y-110678095D01*
X66004762Y-110582857D01*
X65957143Y-110487619D01*
X65909524Y-110440000D01*
X65814286Y-110392381D01*
X65576190Y-110392381D01*
X65433333Y-110440000D01*
X65052381Y-110487619D02*
X65004762Y-110440000D01*
X64909524Y-110392381D01*
X64671428Y-110392381D01*
X64576190Y-110440000D01*
X64528571Y-110487619D01*
X64480952Y-110582857D01*
X64480952Y-110678095D01*
X64528571Y-110820952D01*
X65100000Y-111392381D01*
X64480952Y-111392381D01*
D13*
X72166666Y-97004762D02*
X72261904Y-97052381D01*
X72452381Y-97052381D01*
X72547619Y-97004762D01*
X72595238Y-96957143D01*
X72642857Y-96861905D01*
X72642857Y-96576190D01*
X72595238Y-96480952D01*
X72547619Y-96433333D01*
X72452381Y-96385714D01*
X72261904Y-96385714D01*
X72166666Y-96433333D01*
X71785714Y-97004762D02*
X71690476Y-97052381D01*
X71500000Y-97052381D01*
X71404761Y-97004762D01*
X71357142Y-96909524D01*
X71357142Y-96861905D01*
X71404761Y-96766667D01*
X71500000Y-96719048D01*
X71642857Y-96719048D01*
X71738095Y-96671429D01*
X71785714Y-96576190D01*
X71785714Y-96528571D01*
X71738095Y-96433333D01*
X71642857Y-96385714D01*
X71500000Y-96385714D01*
X71404761Y-96433333D01*
X58404761Y-108152381D02*
X58880952Y-108152381D01*
X58928571Y-108628571D01*
X58880952Y-108580952D01*
X58785714Y-108533333D01*
X58547618Y-108533333D01*
X58452380Y-108580952D01*
X58404761Y-108628571D01*
X58357142Y-108723810D01*
X58357142Y-108961905D01*
X58404761Y-109057143D01*
X58452380Y-109104762D01*
X58547618Y-109152381D01*
X58785714Y-109152381D01*
X58880952Y-109104762D01*
X58928571Y-109057143D01*
X57738095Y-108152381D02*
X57642856Y-108152381D01*
X57547618Y-108200000D01*
X57499999Y-108247619D01*
X57452380Y-108342857D01*
X57404761Y-108533333D01*
X57404761Y-108771429D01*
X57452380Y-108961905D01*
X57499999Y-109057143D01*
X57547618Y-109104762D01*
X57642856Y-109152381D01*
X57738095Y-109152381D01*
X57833333Y-109104762D01*
X57880952Y-109057143D01*
X57928571Y-108961905D01*
X57976190Y-108771429D01*
X57976190Y-108533333D01*
X57928571Y-108342857D01*
X57880952Y-108247619D01*
X57833333Y-108200000D01*
X57738095Y-108152381D01*
X56976190Y-109152381D02*
X56976190Y-108485714D01*
X56976190Y-108580952D02*
X56928571Y-108533333D01*
X56833333Y-108485714D01*
X56690475Y-108485714D01*
X56595237Y-108533333D01*
X56547618Y-108628571D01*
X56547618Y-109152381D01*
X56547618Y-108628571D02*
X56499999Y-108533333D01*
X56404761Y-108485714D01*
X56261904Y-108485714D01*
X56166666Y-108533333D01*
X56119047Y-108628571D01*
X56119047Y-109152381D01*
D14*
X55866666Y-98204762D02*
X55961904Y-98252381D01*
X56152381Y-98252381D01*
X56247619Y-98204762D01*
X56295238Y-98157143D01*
X56342857Y-98061905D01*
X56342857Y-97776190D01*
X56295238Y-97680952D01*
X56247619Y-97633333D01*
X56152381Y-97585714D01*
X55961904Y-97585714D01*
X55866666Y-97633333D01*
X55438095Y-98252381D02*
X55438095Y-97252381D01*
X55342857Y-97871429D02*
X55057142Y-98252381D01*
X55057142Y-97585714D02*
X55438095Y-97966667D01*
D15*
X49911522Y-92143669D02*
X47911522Y-92393669D01*
X49911522Y-92786526D02*
X48863903Y-92917478D01*
X48673427Y-92869859D01*
X48578189Y-92738906D01*
X48578189Y-92524621D01*
X48673427Y-92369859D01*
X48768665Y-92286526D01*
X49911522Y-93500812D02*
X47911522Y-93750812D01*
X49911522Y-94143669D02*
X48863903Y-94274621D01*
X48673427Y-94227002D01*
X48578189Y-94096049D01*
X48578189Y-93881764D01*
X48673427Y-93727002D01*
X48768665Y-93643669D01*
X48578189Y-95667478D02*
X49911522Y-95500812D01*
X48578189Y-95024621D02*
X49625808Y-94893669D01*
X49816284Y-94941288D01*
X49911522Y-95072241D01*
X49911522Y-95286526D01*
X49816284Y-95441288D01*
X49721046Y-95524621D01*
X48578189Y-96238907D02*
X49911522Y-96429384D01*
X48578189Y-96953192D02*
X49911522Y-96429384D01*
X50387712Y-96227002D01*
X50482950Y-96143669D01*
X50578189Y-95988907D01*
X49816284Y-97298431D02*
X49911522Y-97429383D01*
X49911522Y-97715098D01*
X49816284Y-97869860D01*
X49625808Y-97965097D01*
X49530570Y-97977002D01*
X49340093Y-97929383D01*
X49244855Y-97798431D01*
X49244855Y-97584145D01*
X49149617Y-97453193D01*
X48959141Y-97405573D01*
X48863903Y-97417478D01*
X48673427Y-97512717D01*
X48578189Y-97667478D01*
X48578189Y-97881764D01*
X48673427Y-98012717D01*
X48578189Y-99381764D02*
X50578189Y-99131764D01*
X49816284Y-99227003D02*
X49911522Y-99072241D01*
X49911522Y-98786527D01*
X49816284Y-98655574D01*
X49721046Y-98596050D01*
X49530570Y-98548431D01*
X48959141Y-98619859D01*
X48768665Y-98715098D01*
X48673427Y-98798431D01*
X48578189Y-98953193D01*
X48578189Y-99238907D01*
X48673427Y-99369860D01*
X48578189Y-99881764D02*
X48578189Y-100453193D01*
X47911522Y-100179384D02*
X49625808Y-99965098D01*
X49816284Y-100012717D01*
X49911522Y-100143670D01*
X49911522Y-100286527D01*
D16*
X97825323Y-96268825D02*
X99825323Y-96018825D01*
X97825323Y-95325968D02*
X99396751Y-95129540D01*
X99682466Y-95198586D01*
X99825323Y-95390253D01*
X99825323Y-95704539D01*
X99682466Y-95931920D01*
X99539609Y-96054539D01*
X99682466Y-98027158D02*
X99825323Y-97799777D01*
X99825323Y-97380729D01*
X99682466Y-97189062D01*
X99539609Y-97102158D01*
X99253894Y-97033111D01*
X98396751Y-97140254D01*
X98111037Y-97280730D01*
X97968180Y-97403348D01*
X97825323Y-97630729D01*
X97825323Y-98049777D01*
X97968180Y-98241444D01*
X98682466Y-99095015D02*
X98682466Y-100771205D01*
X99825323Y-101675968D02*
X96825323Y-102050968D01*
X96825323Y-102889063D01*
X96968180Y-103080730D01*
X97111037Y-103167634D01*
X97396751Y-103236682D01*
X97825323Y-103183110D01*
X98111037Y-103042634D01*
X98253894Y-102920016D01*
X98396751Y-102692635D01*
X98396751Y-101854540D01*
X99539609Y-105168824D02*
X99682466Y-105046205D01*
X99825323Y-104714063D01*
X99825323Y-104504539D01*
X99682466Y-104208110D01*
X99396751Y-104034301D01*
X99111037Y-103965254D01*
X98539609Y-103931920D01*
X98111037Y-103985492D01*
X97539609Y-104161682D01*
X97253894Y-104302158D01*
X96968180Y-104547396D01*
X96825323Y-104879539D01*
X96825323Y-105089063D01*
X96968180Y-105385491D01*
X97111037Y-105472396D01*
X96825323Y-107812872D02*
X99825323Y-108171205D01*
X96825323Y-109279538D01*
X99825323Y-110790252D02*
X99825323Y-109533110D01*
X99825323Y-110161681D02*
X96825323Y-110536681D01*
X97253894Y-110273586D01*
X97539609Y-110028347D01*
X97682466Y-109800967D01*
X99539609Y-111768824D02*
X99682466Y-111855728D01*
X99825323Y-111733110D01*
X99682466Y-111646205D01*
X99539609Y-111768824D01*
X99825323Y-111733110D01*
X99825323Y-113933109D02*
X99825323Y-112675967D01*
X99825323Y-113304538D02*
X96825323Y-113679538D01*
X97253894Y-113416443D01*
X97539609Y-113171204D01*
X97682466Y-112943824D01*
D15*
X82328571Y-124578572D02*
X80828571Y-124578572D01*
X81400000Y-124578572D02*
X81328571Y-124721429D01*
X81328571Y-125007143D01*
X81400000Y-125150000D01*
X81471429Y-125221429D01*
X81614286Y-125292858D01*
X82042857Y-125292858D01*
X82185714Y-125221429D01*
X82257143Y-125150000D01*
X82328571Y-125007143D01*
X82328571Y-124721429D01*
X82257143Y-124578572D01*
X83878571Y-125221429D02*
X85092857Y-125221429D01*
X85235714Y-125150000D01*
X85307143Y-125078572D01*
X85378571Y-124935715D01*
X85378571Y-124721429D01*
X85307143Y-124578572D01*
X84807143Y-125221429D02*
X84878571Y-125078572D01*
X84878571Y-124792858D01*
X84807143Y-124650000D01*
X84735714Y-124578572D01*
X84592857Y-124507143D01*
X84164286Y-124507143D01*
X84021429Y-124578572D01*
X83950000Y-124650000D01*
X83878571Y-124792858D01*
X83878571Y-125078572D01*
X83950000Y-125221429D01*
X87428571Y-124792858D02*
X86428571Y-124792858D01*
X86714286Y-124792858D02*
X86571429Y-124864286D01*
X86500000Y-124935715D01*
X86428571Y-125078572D01*
X86428571Y-125221429D01*
X82778571Y-132403732D02*
X81278571Y-132403732D01*
X82778571Y-133046589D02*
X81992857Y-133046589D01*
X81850000Y-132975160D01*
X81778571Y-132832303D01*
X81778571Y-132618018D01*
X81850000Y-132475160D01*
X81921429Y-132403732D01*
X79278571Y-132365478D02*
X80278571Y-132722621D01*
X79278571Y-133079763D01*
D17*
X50480000Y-89400000D02*
X50480000Y-88400000D01*
X47120000Y-89400000D02*
X47120000Y-88400000D01*
X52140000Y-85300000D02*
X52140000Y-83030000D01*
X52140000Y-83030000D02*
X53660000Y-83030000D01*
X53660000Y-83030000D02*
X53660000Y-85300000D01*
D14*
X86310407Y-105115400D02*
G75*
G03X86310407Y-105115400I-223607J0D01*
G01*
X85235328Y-102415400D02*
G75*
G03X85235328Y-102415400I-848528J0D01*
G01*
X85886800Y-104015400D02*
X73386800Y-104015400D01*
X73386800Y-104015400D02*
X73386800Y-86215400D01*
X73386800Y-86215400D02*
X85886800Y-86215400D01*
X85886800Y-86215400D02*
X85886800Y-104015400D01*
X70353007Y-83883600D02*
G75*
G03X70353007Y-83883600I-223607J0D01*
G01*
X68161856Y-85283600D02*
G75*
G03X68161856Y-85283600I-632456J0D01*
G01*
X68929400Y-84083600D02*
X68929400Y-106083600D01*
X68929400Y-106083600D02*
X60129400Y-106083600D01*
X60129400Y-106083600D02*
X60129400Y-84083600D01*
X60129400Y-84083600D02*
X68929400Y-84083600D01*
D17*
X52950400Y-92860400D02*
X52510400Y-92860400D01*
X52950400Y-93880400D02*
X52510400Y-93880400D01*
X76680000Y-83610000D02*
X77120000Y-83610000D01*
X76680000Y-82590000D02*
X77120000Y-82590000D01*
X52950400Y-88085200D02*
X52510400Y-88085200D01*
X52950400Y-89105200D02*
X52510400Y-89105200D01*
X52950400Y-97991200D02*
X52510400Y-97991200D01*
X52950400Y-99011200D02*
X52510400Y-99011200D01*
X82628200Y-122343200D02*
X82628200Y-121903200D01*
X81608200Y-122343200D02*
X81608200Y-121903200D01*
X84863400Y-122343200D02*
X84863400Y-121903200D01*
X83843400Y-122343200D02*
X83843400Y-121903200D01*
X87149400Y-122343200D02*
X87149400Y-121903200D01*
X86129400Y-122343200D02*
X86129400Y-121903200D01*
X74120000Y-121490000D02*
X73680000Y-121490000D01*
X74120000Y-122510000D02*
X73680000Y-122510000D01*
X74120000Y-118490000D02*
X73680000Y-118490000D01*
X74120000Y-119510000D02*
X73680000Y-119510000D01*
X49665600Y-103176800D02*
X50105600Y-103176800D01*
X49665600Y-102156800D02*
X50105600Y-102156800D01*
X49665600Y-105361200D02*
X50105600Y-105361200D01*
X49665600Y-104341200D02*
X50105600Y-104341200D01*
X60562200Y-112447800D02*
X61002200Y-112447800D01*
X60562200Y-111427800D02*
X61002200Y-111427800D01*
X55928800Y-113495800D02*
X55928800Y-113935800D01*
X56948800Y-113495800D02*
X56948800Y-113935800D01*
X58010000Y-74857500D02*
X58010000Y-74417500D01*
X56990000Y-74857500D02*
X56990000Y-74417500D01*
X55910000Y-74807500D02*
X55910000Y-74507500D01*
X54490000Y-74807500D02*
X54490000Y-74507500D01*
X50240000Y-85300000D02*
X50240000Y-83030000D01*
X50240000Y-83030000D02*
X51760000Y-83030000D01*
X51760000Y-83030000D02*
X51760000Y-85300000D01*
X48440000Y-85300000D02*
X48440000Y-83030000D01*
X48440000Y-83030000D02*
X49960000Y-83030000D01*
X49960000Y-83030000D02*
X49960000Y-85300000D01*
X46640000Y-85300000D02*
X46640000Y-83030000D01*
X46640000Y-83030000D02*
X48160000Y-83030000D01*
X48160000Y-83030000D02*
X48160000Y-85300000D01*
X60632200Y-115416400D02*
X60932200Y-115416400D01*
X60632200Y-113996400D02*
X60932200Y-113996400D01*
X75048400Y-107592400D02*
X74608400Y-107592400D01*
X75048400Y-108612400D02*
X74608400Y-108612400D01*
X73680000Y-121010000D02*
X74120000Y-121010000D01*
X73680000Y-119990000D02*
X74120000Y-119990000D01*
X73680000Y-118110000D02*
X74120000Y-118110000D01*
X73680000Y-117090000D02*
X74120000Y-117090000D01*
X56745600Y-80509400D02*
X56745600Y-80069400D01*
X55725600Y-80509400D02*
X55725600Y-80069400D01*
X59825600Y-81840800D02*
X60265600Y-81840800D01*
X59825600Y-80820800D02*
X60265600Y-80820800D01*
X59749400Y-79935800D02*
X60189400Y-79935800D01*
X59749400Y-78915800D02*
X60189400Y-78915800D01*
X63490000Y-119480000D02*
X63490000Y-119920000D01*
X64510000Y-119480000D02*
X64510000Y-119920000D01*
X61790000Y-119480000D02*
X61790000Y-119920000D01*
X62810000Y-119480000D02*
X62810000Y-119920000D01*
X49608200Y-115663000D02*
X49608200Y-115223000D01*
X48588200Y-115663000D02*
X48588200Y-115223000D01*
X78265400Y-120247200D02*
X79265400Y-120247200D01*
X78265400Y-116887200D02*
X79265400Y-116887200D01*
X79265400Y-109191000D02*
X78265400Y-109191000D01*
X79265400Y-112551000D02*
X78265400Y-112551000D01*
X78265400Y-116411800D02*
X79265400Y-116411800D01*
X78265400Y-113051800D02*
X79265400Y-113051800D01*
X74400000Y-113120000D02*
X73400000Y-113120000D01*
X74400000Y-116480000D02*
X73400000Y-116480000D01*
X68704000Y-116443400D02*
X69704000Y-116443400D01*
X68704000Y-113083400D02*
X69704000Y-113083400D01*
X57052000Y-126890400D02*
X57052000Y-125890400D01*
X53692000Y-126890400D02*
X53692000Y-125890400D01*
X97274000Y-84070400D02*
X96274000Y-84070400D01*
X97274000Y-87430400D02*
X96274000Y-87430400D01*
X96274000Y-92358000D02*
X97274000Y-92358000D01*
X96274000Y-88998000D02*
X97274000Y-88998000D01*
X63600000Y-73100000D02*
X63600000Y-75500000D01*
X63600000Y-75500000D02*
X64650000Y-75500000D01*
X66900000Y-73700000D02*
X66900000Y-75500000D01*
X66900000Y-75500000D02*
X65850000Y-75500000D01*
X59700000Y-73100000D02*
X59700000Y-75500000D01*
X59700000Y-75500000D02*
X60750000Y-75500000D01*
X63000000Y-73700000D02*
X63000000Y-75500000D01*
X63000000Y-75500000D02*
X61950000Y-75500000D01*
D14*
X54575600Y-111827200D02*
X54575600Y-111302200D01*
X50275600Y-107527200D02*
X50275600Y-108052200D01*
X54575600Y-107527200D02*
X54575600Y-108052200D01*
X50275600Y-111827200D02*
X50800600Y-111827200D01*
X50275600Y-107527200D02*
X50800600Y-107527200D01*
X54575600Y-107527200D02*
X54050600Y-107527200D01*
X54575600Y-111827200D02*
X54050600Y-111827200D01*
D17*
X75610000Y-78010000D02*
X74350000Y-78010000D01*
X68790000Y-78010000D02*
X70050000Y-78010000D01*
X75610000Y-74250000D02*
X75610000Y-78010000D01*
X68790000Y-72000000D02*
X68790000Y-78010000D01*
D14*
X46407143Y-87850000D02*
X45978571Y-87550000D01*
X46407143Y-87335715D02*
X45507143Y-87335715D01*
X45507143Y-87678572D01*
X45550000Y-87764286D01*
X45592857Y-87807143D01*
X45678571Y-87850000D01*
X45807143Y-87850000D01*
X45892857Y-87807143D01*
X45935714Y-87764286D01*
X45978571Y-87678572D01*
X45978571Y-87335715D01*
X46407143Y-88235715D02*
X45507143Y-88235715D01*
X46407143Y-88750000D01*
X45507143Y-88750000D01*
X46407143Y-89650000D02*
X46407143Y-89135715D01*
X46407143Y-89392857D02*
X45507143Y-89392857D01*
X45635714Y-89307143D01*
X45721429Y-89221429D01*
X45764286Y-89135715D01*
X45507143Y-90464286D02*
X45507143Y-90035715D01*
X45935714Y-89992858D01*
X45892857Y-90035715D01*
X45850000Y-90121429D01*
X45850000Y-90335715D01*
X45892857Y-90421429D01*
X45935714Y-90464286D01*
X46021429Y-90507143D01*
X46235714Y-90507143D01*
X46321429Y-90464286D01*
X46364286Y-90421429D01*
X46407143Y-90335715D01*
X46407143Y-90121429D01*
X46364286Y-90035715D01*
X46321429Y-89992858D01*
X53207143Y-81335715D02*
X52307143Y-81335715D01*
X52307143Y-81550000D01*
X52350000Y-81678572D01*
X52435714Y-81764286D01*
X52521429Y-81807143D01*
X52692857Y-81850000D01*
X52821429Y-81850000D01*
X52992857Y-81807143D01*
X53078571Y-81764286D01*
X53164286Y-81678572D01*
X53207143Y-81550000D01*
X53207143Y-81335715D01*
X53207143Y-82707143D02*
X53207143Y-82192858D01*
X53207143Y-82450000D02*
X52307143Y-82450000D01*
X52435714Y-82364286D01*
X52521429Y-82278572D01*
X52564286Y-82192858D01*
X76093943Y-94129686D02*
X76822514Y-94129686D01*
X76908229Y-94172543D01*
X76951086Y-94215400D01*
X76993943Y-94301114D01*
X76993943Y-94472543D01*
X76951086Y-94558257D01*
X76908229Y-94601114D01*
X76822514Y-94643971D01*
X76093943Y-94643971D01*
X76179657Y-95029686D02*
X76136800Y-95072543D01*
X76093943Y-95158257D01*
X76093943Y-95372543D01*
X76136800Y-95458257D01*
X76179657Y-95501114D01*
X76265371Y-95543971D01*
X76351086Y-95543971D01*
X76479657Y-95501114D01*
X76993943Y-94986828D01*
X76993943Y-95543971D01*
X65938314Y-85511543D02*
X65938314Y-86240114D01*
X65895457Y-86325829D01*
X65852600Y-86368686D01*
X65766886Y-86411543D01*
X65595457Y-86411543D01*
X65509743Y-86368686D01*
X65466886Y-86325829D01*
X65424029Y-86240114D01*
X65424029Y-85511543D01*
X65081172Y-85511543D02*
X64524029Y-85511543D01*
X64824029Y-85854400D01*
X64695457Y-85854400D01*
X64609743Y-85897257D01*
X64566886Y-85940114D01*
X64524029Y-86025829D01*
X64524029Y-86240114D01*
X64566886Y-86325829D01*
X64609743Y-86368686D01*
X64695457Y-86411543D01*
X64952600Y-86411543D01*
X65038314Y-86368686D01*
X65081172Y-86325829D01*
X53308972Y-92041829D02*
X53351829Y-92084686D01*
X53480400Y-92127543D01*
X53566114Y-92127543D01*
X53694686Y-92084686D01*
X53780400Y-91998971D01*
X53823257Y-91913257D01*
X53866114Y-91741829D01*
X53866114Y-91613257D01*
X53823257Y-91441829D01*
X53780400Y-91356114D01*
X53694686Y-91270400D01*
X53566114Y-91227543D01*
X53480400Y-91227543D01*
X53351829Y-91270400D01*
X53308972Y-91313257D01*
X52451829Y-92127543D02*
X52966114Y-92127543D01*
X52708972Y-92127543D02*
X52708972Y-91227543D01*
X52794686Y-91356114D01*
X52880400Y-91441829D01*
X52966114Y-91484686D01*
X51894686Y-91227543D02*
X51808971Y-91227543D01*
X51723257Y-91270400D01*
X51680400Y-91313257D01*
X51637543Y-91398971D01*
X51594686Y-91570400D01*
X51594686Y-91784686D01*
X51637543Y-91956114D01*
X51680400Y-92041829D01*
X51723257Y-92084686D01*
X51808971Y-92127543D01*
X51894686Y-92127543D01*
X51980400Y-92084686D01*
X52023257Y-92041829D01*
X52066114Y-91956114D01*
X52108971Y-91784686D01*
X52108971Y-91570400D01*
X52066114Y-91398971D01*
X52023257Y-91313257D01*
X51980400Y-91270400D01*
X51894686Y-91227543D01*
X77578572Y-82121429D02*
X77621429Y-82164286D01*
X77750000Y-82207143D01*
X77835714Y-82207143D01*
X77964286Y-82164286D01*
X78050000Y-82078571D01*
X78092857Y-81992857D01*
X78135714Y-81821429D01*
X78135714Y-81692857D01*
X78092857Y-81521429D01*
X78050000Y-81435714D01*
X77964286Y-81350000D01*
X77835714Y-81307143D01*
X77750000Y-81307143D01*
X77621429Y-81350000D01*
X77578572Y-81392857D01*
X76721429Y-82207143D02*
X77235714Y-82207143D01*
X76978572Y-82207143D02*
X76978572Y-81307143D01*
X77064286Y-81435714D01*
X77150000Y-81521429D01*
X77235714Y-81564286D01*
X75864286Y-82207143D02*
X76378571Y-82207143D01*
X76121429Y-82207143D02*
X76121429Y-81307143D01*
X76207143Y-81435714D01*
X76292857Y-81521429D01*
X76378571Y-81564286D01*
X53308972Y-87266629D02*
X53351829Y-87309486D01*
X53480400Y-87352343D01*
X53566114Y-87352343D01*
X53694686Y-87309486D01*
X53780400Y-87223771D01*
X53823257Y-87138057D01*
X53866114Y-86966629D01*
X53866114Y-86838057D01*
X53823257Y-86666629D01*
X53780400Y-86580914D01*
X53694686Y-86495200D01*
X53566114Y-86452343D01*
X53480400Y-86452343D01*
X53351829Y-86495200D01*
X53308972Y-86538057D01*
X52451829Y-87352343D02*
X52966114Y-87352343D01*
X52708972Y-87352343D02*
X52708972Y-86452343D01*
X52794686Y-86580914D01*
X52880400Y-86666629D01*
X52966114Y-86709486D01*
X51637543Y-86452343D02*
X52066114Y-86452343D01*
X52108971Y-86880914D01*
X52066114Y-86838057D01*
X51980400Y-86795200D01*
X51766114Y-86795200D01*
X51680400Y-86838057D01*
X51637543Y-86880914D01*
X51594686Y-86966629D01*
X51594686Y-87180914D01*
X51637543Y-87266629D01*
X51680400Y-87309486D01*
X51766114Y-87352343D01*
X51980400Y-87352343D01*
X52066114Y-87309486D01*
X52108971Y-87266629D01*
X53308972Y-97172629D02*
X53351829Y-97215486D01*
X53480400Y-97258343D01*
X53566114Y-97258343D01*
X53694686Y-97215486D01*
X53780400Y-97129771D01*
X53823257Y-97044057D01*
X53866114Y-96872629D01*
X53866114Y-96744057D01*
X53823257Y-96572629D01*
X53780400Y-96486914D01*
X53694686Y-96401200D01*
X53566114Y-96358343D01*
X53480400Y-96358343D01*
X53351829Y-96401200D01*
X53308972Y-96444057D01*
X52451829Y-97258343D02*
X52966114Y-97258343D01*
X52708972Y-97258343D02*
X52708972Y-96358343D01*
X52794686Y-96486914D01*
X52880400Y-96572629D01*
X52966114Y-96615486D01*
X52151829Y-96358343D02*
X51551829Y-96358343D01*
X51937543Y-97258343D01*
X83221429Y-118721428D02*
X83264286Y-118678571D01*
X83307143Y-118550000D01*
X83307143Y-118464286D01*
X83264286Y-118335714D01*
X83178571Y-118250000D01*
X83092857Y-118207143D01*
X82921429Y-118164286D01*
X82792857Y-118164286D01*
X82621429Y-118207143D01*
X82535714Y-118250000D01*
X82450000Y-118335714D01*
X82407143Y-118464286D01*
X82407143Y-118550000D01*
X82450000Y-118678571D01*
X82492857Y-118721428D01*
X83307143Y-119578571D02*
X83307143Y-119064286D01*
X83307143Y-119321428D02*
X82407143Y-119321428D01*
X82535714Y-119235714D01*
X82621429Y-119150000D01*
X82664286Y-119064286D01*
X82792857Y-120092857D02*
X82750000Y-120007143D01*
X82707143Y-119964286D01*
X82621429Y-119921429D01*
X82578571Y-119921429D01*
X82492857Y-119964286D01*
X82450000Y-120007143D01*
X82407143Y-120092857D01*
X82407143Y-120264286D01*
X82450000Y-120350000D01*
X82492857Y-120392857D01*
X82578571Y-120435714D01*
X82621429Y-120435714D01*
X82707143Y-120392857D01*
X82750000Y-120350000D01*
X82792857Y-120264286D01*
X82792857Y-120092857D01*
X82835714Y-120007143D01*
X82878571Y-119964286D01*
X82964286Y-119921429D01*
X83135714Y-119921429D01*
X83221429Y-119964286D01*
X83264286Y-120007143D01*
X83307143Y-120092857D01*
X83307143Y-120264286D01*
X83264286Y-120350000D01*
X83221429Y-120392857D01*
X83135714Y-120435714D01*
X82964286Y-120435714D01*
X82878571Y-120392857D01*
X82835714Y-120350000D01*
X82792857Y-120264286D01*
X84721429Y-118721428D02*
X84764286Y-118678571D01*
X84807143Y-118550000D01*
X84807143Y-118464286D01*
X84764286Y-118335714D01*
X84678571Y-118250000D01*
X84592857Y-118207143D01*
X84421429Y-118164286D01*
X84292857Y-118164286D01*
X84121429Y-118207143D01*
X84035714Y-118250000D01*
X83950000Y-118335714D01*
X83907143Y-118464286D01*
X83907143Y-118550000D01*
X83950000Y-118678571D01*
X83992857Y-118721428D01*
X84807143Y-119578571D02*
X84807143Y-119064286D01*
X84807143Y-119321428D02*
X83907143Y-119321428D01*
X84035714Y-119235714D01*
X84121429Y-119150000D01*
X84164286Y-119064286D01*
X84807143Y-120007143D02*
X84807143Y-120178571D01*
X84764286Y-120264286D01*
X84721429Y-120307143D01*
X84592857Y-120392857D01*
X84421429Y-120435714D01*
X84078571Y-120435714D01*
X83992857Y-120392857D01*
X83950000Y-120350000D01*
X83907143Y-120264286D01*
X83907143Y-120092857D01*
X83950000Y-120007143D01*
X83992857Y-119964286D01*
X84078571Y-119921429D01*
X84292857Y-119921429D01*
X84378571Y-119964286D01*
X84421429Y-120007143D01*
X84464286Y-120092857D01*
X84464286Y-120264286D01*
X84421429Y-120350000D01*
X84378571Y-120392857D01*
X84292857Y-120435714D01*
X86121429Y-118721428D02*
X86164286Y-118678571D01*
X86207143Y-118550000D01*
X86207143Y-118464286D01*
X86164286Y-118335714D01*
X86078571Y-118250000D01*
X85992857Y-118207143D01*
X85821429Y-118164286D01*
X85692857Y-118164286D01*
X85521429Y-118207143D01*
X85435714Y-118250000D01*
X85350000Y-118335714D01*
X85307143Y-118464286D01*
X85307143Y-118550000D01*
X85350000Y-118678571D01*
X85392857Y-118721428D01*
X85392857Y-119064286D02*
X85350000Y-119107143D01*
X85307143Y-119192857D01*
X85307143Y-119407143D01*
X85350000Y-119492857D01*
X85392857Y-119535714D01*
X85478571Y-119578571D01*
X85564286Y-119578571D01*
X85692857Y-119535714D01*
X86207143Y-119021428D01*
X86207143Y-119578571D01*
X85307143Y-120135714D02*
X85307143Y-120221429D01*
X85350000Y-120307143D01*
X85392857Y-120350000D01*
X85478571Y-120392857D01*
X85650000Y-120435714D01*
X85864286Y-120435714D01*
X86035714Y-120392857D01*
X86121429Y-120350000D01*
X86164286Y-120307143D01*
X86207143Y-120221429D01*
X86207143Y-120135714D01*
X86164286Y-120050000D01*
X86121429Y-120007143D01*
X86035714Y-119964286D01*
X85864286Y-119921429D01*
X85650000Y-119921429D01*
X85478571Y-119964286D01*
X85392857Y-120007143D01*
X85350000Y-120050000D01*
X85307143Y-120135714D01*
X77378572Y-122321429D02*
X77421429Y-122364286D01*
X77550000Y-122407143D01*
X77635714Y-122407143D01*
X77764286Y-122364286D01*
X77850000Y-122278571D01*
X77892857Y-122192857D01*
X77935714Y-122021429D01*
X77935714Y-121892857D01*
X77892857Y-121721429D01*
X77850000Y-121635714D01*
X77764286Y-121550000D01*
X77635714Y-121507143D01*
X77550000Y-121507143D01*
X77421429Y-121550000D01*
X77378572Y-121592857D01*
X77035714Y-121592857D02*
X76992857Y-121550000D01*
X76907143Y-121507143D01*
X76692857Y-121507143D01*
X76607143Y-121550000D01*
X76564286Y-121592857D01*
X76521429Y-121678571D01*
X76521429Y-121764286D01*
X76564286Y-121892857D01*
X77078572Y-122407143D01*
X76521429Y-122407143D01*
X75664286Y-122407143D02*
X76178571Y-122407143D01*
X75921429Y-122407143D02*
X75921429Y-121507143D01*
X76007143Y-121635714D01*
X76092857Y-121721429D01*
X76178571Y-121764286D01*
X71578572Y-119321429D02*
X71621429Y-119364286D01*
X71750000Y-119407143D01*
X71835714Y-119407143D01*
X71964286Y-119364286D01*
X72050000Y-119278571D01*
X72092857Y-119192857D01*
X72135714Y-119021429D01*
X72135714Y-118892857D01*
X72092857Y-118721429D01*
X72050000Y-118635714D01*
X71964286Y-118550000D01*
X71835714Y-118507143D01*
X71750000Y-118507143D01*
X71621429Y-118550000D01*
X71578572Y-118592857D01*
X71235714Y-118592857D02*
X71192857Y-118550000D01*
X71107143Y-118507143D01*
X70892857Y-118507143D01*
X70807143Y-118550000D01*
X70764286Y-118592857D01*
X70721429Y-118678571D01*
X70721429Y-118764286D01*
X70764286Y-118892857D01*
X71278572Y-119407143D01*
X70721429Y-119407143D01*
X70378571Y-118592857D02*
X70335714Y-118550000D01*
X70250000Y-118507143D01*
X70035714Y-118507143D01*
X69950000Y-118550000D01*
X69907143Y-118592857D01*
X69864286Y-118678571D01*
X69864286Y-118764286D01*
X69907143Y-118892857D01*
X70421429Y-119407143D01*
X69864286Y-119407143D01*
X53178572Y-103021429D02*
X53221429Y-103064286D01*
X53350000Y-103107143D01*
X53435714Y-103107143D01*
X53564286Y-103064286D01*
X53650000Y-102978571D01*
X53692857Y-102892857D01*
X53735714Y-102721429D01*
X53735714Y-102592857D01*
X53692857Y-102421429D01*
X53650000Y-102335714D01*
X53564286Y-102250000D01*
X53435714Y-102207143D01*
X53350000Y-102207143D01*
X53221429Y-102250000D01*
X53178572Y-102292857D01*
X52835714Y-102292857D02*
X52792857Y-102250000D01*
X52707143Y-102207143D01*
X52492857Y-102207143D01*
X52407143Y-102250000D01*
X52364286Y-102292857D01*
X52321429Y-102378571D01*
X52321429Y-102464286D01*
X52364286Y-102592857D01*
X52878572Y-103107143D01*
X52321429Y-103107143D01*
X51507143Y-102207143D02*
X51935714Y-102207143D01*
X51978571Y-102635714D01*
X51935714Y-102592857D01*
X51850000Y-102550000D01*
X51635714Y-102550000D01*
X51550000Y-102592857D01*
X51507143Y-102635714D01*
X51464286Y-102721429D01*
X51464286Y-102935714D01*
X51507143Y-103021429D01*
X51550000Y-103064286D01*
X51635714Y-103107143D01*
X51850000Y-103107143D01*
X51935714Y-103064286D01*
X51978571Y-103021429D01*
X53178572Y-105121429D02*
X53221429Y-105164286D01*
X53350000Y-105207143D01*
X53435714Y-105207143D01*
X53564286Y-105164286D01*
X53650000Y-105078571D01*
X53692857Y-104992857D01*
X53735714Y-104821429D01*
X53735714Y-104692857D01*
X53692857Y-104521429D01*
X53650000Y-104435714D01*
X53564286Y-104350000D01*
X53435714Y-104307143D01*
X53350000Y-104307143D01*
X53221429Y-104350000D01*
X53178572Y-104392857D01*
X52835714Y-104392857D02*
X52792857Y-104350000D01*
X52707143Y-104307143D01*
X52492857Y-104307143D01*
X52407143Y-104350000D01*
X52364286Y-104392857D01*
X52321429Y-104478571D01*
X52321429Y-104564286D01*
X52364286Y-104692857D01*
X52878572Y-105207143D01*
X52321429Y-105207143D01*
X51550000Y-104307143D02*
X51721429Y-104307143D01*
X51807143Y-104350000D01*
X51850000Y-104392857D01*
X51935714Y-104521429D01*
X51978571Y-104692857D01*
X51978571Y-105035714D01*
X51935714Y-105121429D01*
X51892857Y-105164286D01*
X51807143Y-105207143D01*
X51635714Y-105207143D01*
X51550000Y-105164286D01*
X51507143Y-105121429D01*
X51464286Y-105035714D01*
X51464286Y-104821429D01*
X51507143Y-104735714D01*
X51550000Y-104692857D01*
X51635714Y-104650000D01*
X51807143Y-104650000D01*
X51892857Y-104692857D01*
X51935714Y-104735714D01*
X51978571Y-104821429D01*
X61378572Y-110721429D02*
X61421429Y-110764286D01*
X61550000Y-110807143D01*
X61635714Y-110807143D01*
X61764286Y-110764286D01*
X61850000Y-110678571D01*
X61892857Y-110592857D01*
X61935714Y-110421429D01*
X61935714Y-110292857D01*
X61892857Y-110121429D01*
X61850000Y-110035714D01*
X61764286Y-109950000D01*
X61635714Y-109907143D01*
X61550000Y-109907143D01*
X61421429Y-109950000D01*
X61378572Y-109992857D01*
X61035714Y-109992857D02*
X60992857Y-109950000D01*
X60907143Y-109907143D01*
X60692857Y-109907143D01*
X60607143Y-109950000D01*
X60564286Y-109992857D01*
X60521429Y-110078571D01*
X60521429Y-110164286D01*
X60564286Y-110292857D01*
X61078572Y-110807143D01*
X60521429Y-110807143D01*
X60221429Y-109907143D02*
X59621429Y-109907143D01*
X60007143Y-110807143D01*
X55321429Y-112921428D02*
X55364286Y-112878571D01*
X55407143Y-112750000D01*
X55407143Y-112664286D01*
X55364286Y-112535714D01*
X55278571Y-112450000D01*
X55192857Y-112407143D01*
X55021429Y-112364286D01*
X54892857Y-112364286D01*
X54721429Y-112407143D01*
X54635714Y-112450000D01*
X54550000Y-112535714D01*
X54507143Y-112664286D01*
X54507143Y-112750000D01*
X54550000Y-112878571D01*
X54592857Y-112921428D01*
X54592857Y-113264286D02*
X54550000Y-113307143D01*
X54507143Y-113392857D01*
X54507143Y-113607143D01*
X54550000Y-113692857D01*
X54592857Y-113735714D01*
X54678571Y-113778571D01*
X54764286Y-113778571D01*
X54892857Y-113735714D01*
X55407143Y-113221428D01*
X55407143Y-113778571D01*
X54892857Y-114292857D02*
X54850000Y-114207143D01*
X54807143Y-114164286D01*
X54721429Y-114121429D01*
X54678571Y-114121429D01*
X54592857Y-114164286D01*
X54550000Y-114207143D01*
X54507143Y-114292857D01*
X54507143Y-114464286D01*
X54550000Y-114550000D01*
X54592857Y-114592857D01*
X54678571Y-114635714D01*
X54721429Y-114635714D01*
X54807143Y-114592857D01*
X54850000Y-114550000D01*
X54892857Y-114464286D01*
X54892857Y-114292857D01*
X54935714Y-114207143D01*
X54978571Y-114164286D01*
X55064286Y-114121429D01*
X55235714Y-114121429D01*
X55321429Y-114164286D01*
X55364286Y-114207143D01*
X55407143Y-114292857D01*
X55407143Y-114464286D01*
X55364286Y-114550000D01*
X55321429Y-114592857D01*
X55235714Y-114635714D01*
X55064286Y-114635714D01*
X54978571Y-114592857D01*
X54935714Y-114550000D01*
X54892857Y-114464286D01*
X59221429Y-74058928D02*
X59264286Y-74016071D01*
X59307143Y-73887500D01*
X59307143Y-73801786D01*
X59264286Y-73673214D01*
X59178571Y-73587500D01*
X59092857Y-73544643D01*
X58921429Y-73501786D01*
X58792857Y-73501786D01*
X58621429Y-73544643D01*
X58535714Y-73587500D01*
X58450000Y-73673214D01*
X58407143Y-73801786D01*
X58407143Y-73887500D01*
X58450000Y-74016071D01*
X58492857Y-74058928D01*
X58492857Y-74401786D02*
X58450000Y-74444643D01*
X58407143Y-74530357D01*
X58407143Y-74744643D01*
X58450000Y-74830357D01*
X58492857Y-74873214D01*
X58578571Y-74916071D01*
X58664286Y-74916071D01*
X58792857Y-74873214D01*
X59307143Y-74358928D01*
X59307143Y-74916071D01*
X59307143Y-75344643D02*
X59307143Y-75516071D01*
X59264286Y-75601786D01*
X59221429Y-75644643D01*
X59092857Y-75730357D01*
X58921429Y-75773214D01*
X58578571Y-75773214D01*
X58492857Y-75730357D01*
X58450000Y-75687500D01*
X58407143Y-75601786D01*
X58407143Y-75430357D01*
X58450000Y-75344643D01*
X58492857Y-75301786D01*
X58578571Y-75258929D01*
X58792857Y-75258929D01*
X58878571Y-75301786D01*
X58921429Y-75344643D01*
X58964286Y-75430357D01*
X58964286Y-75601786D01*
X58921429Y-75687500D01*
X58878571Y-75730357D01*
X58792857Y-75773214D01*
X54021429Y-74078928D02*
X54064286Y-74036071D01*
X54107143Y-73907500D01*
X54107143Y-73821786D01*
X54064286Y-73693214D01*
X53978571Y-73607500D01*
X53892857Y-73564643D01*
X53721429Y-73521786D01*
X53592857Y-73521786D01*
X53421429Y-73564643D01*
X53335714Y-73607500D01*
X53250000Y-73693214D01*
X53207143Y-73821786D01*
X53207143Y-73907500D01*
X53250000Y-74036071D01*
X53292857Y-74078928D01*
X53207143Y-74378928D02*
X53207143Y-74936071D01*
X53550000Y-74636071D01*
X53550000Y-74764643D01*
X53592857Y-74850357D01*
X53635714Y-74893214D01*
X53721429Y-74936071D01*
X53935714Y-74936071D01*
X54021429Y-74893214D01*
X54064286Y-74850357D01*
X54107143Y-74764643D01*
X54107143Y-74507500D01*
X54064286Y-74421786D01*
X54021429Y-74378928D01*
X53207143Y-75493214D02*
X53207143Y-75578929D01*
X53250000Y-75664643D01*
X53292857Y-75707500D01*
X53378571Y-75750357D01*
X53550000Y-75793214D01*
X53764286Y-75793214D01*
X53935714Y-75750357D01*
X54021429Y-75707500D01*
X54064286Y-75664643D01*
X54107143Y-75578929D01*
X54107143Y-75493214D01*
X54064286Y-75407500D01*
X54021429Y-75364643D01*
X53935714Y-75321786D01*
X53764286Y-75278929D01*
X53550000Y-75278929D01*
X53378571Y-75321786D01*
X53292857Y-75364643D01*
X53250000Y-75407500D01*
X53207143Y-75493214D01*
X51407143Y-81335715D02*
X50507143Y-81335715D01*
X50507143Y-81550000D01*
X50550000Y-81678572D01*
X50635714Y-81764286D01*
X50721429Y-81807143D01*
X50892857Y-81850000D01*
X51021429Y-81850000D01*
X51192857Y-81807143D01*
X51278571Y-81764286D01*
X51364286Y-81678572D01*
X51407143Y-81550000D01*
X51407143Y-81335715D01*
X50592857Y-82192858D02*
X50550000Y-82235715D01*
X50507143Y-82321429D01*
X50507143Y-82535715D01*
X50550000Y-82621429D01*
X50592857Y-82664286D01*
X50678571Y-82707143D01*
X50764286Y-82707143D01*
X50892857Y-82664286D01*
X51407143Y-82150000D01*
X51407143Y-82707143D01*
X49607143Y-81335715D02*
X48707143Y-81335715D01*
X48707143Y-81550000D01*
X48750000Y-81678572D01*
X48835714Y-81764286D01*
X48921429Y-81807143D01*
X49092857Y-81850000D01*
X49221429Y-81850000D01*
X49392857Y-81807143D01*
X49478571Y-81764286D01*
X49564286Y-81678572D01*
X49607143Y-81550000D01*
X49607143Y-81335715D01*
X48707143Y-82150000D02*
X48707143Y-82707143D01*
X49050000Y-82407143D01*
X49050000Y-82535715D01*
X49092857Y-82621429D01*
X49135714Y-82664286D01*
X49221429Y-82707143D01*
X49435714Y-82707143D01*
X49521429Y-82664286D01*
X49564286Y-82621429D01*
X49607143Y-82535715D01*
X49607143Y-82278572D01*
X49564286Y-82192858D01*
X49521429Y-82150000D01*
X47807143Y-81335715D02*
X46907143Y-81335715D01*
X46907143Y-81550000D01*
X46950000Y-81678572D01*
X47035714Y-81764286D01*
X47121429Y-81807143D01*
X47292857Y-81850000D01*
X47421429Y-81850000D01*
X47592857Y-81807143D01*
X47678571Y-81764286D01*
X47764286Y-81678572D01*
X47807143Y-81550000D01*
X47807143Y-81335715D01*
X47207143Y-82621429D02*
X47807143Y-82621429D01*
X46864286Y-82407143D02*
X47507143Y-82192858D01*
X47507143Y-82750000D01*
X63750000Y-115107143D02*
X64178571Y-115107143D01*
X64178571Y-114207143D01*
X62978572Y-115107143D02*
X63492857Y-115107143D01*
X63235715Y-115107143D02*
X63235715Y-114207143D01*
X63321429Y-114335714D01*
X63407143Y-114421429D01*
X63492857Y-114464286D01*
X74978400Y-106859543D02*
X75278400Y-106430971D01*
X75492685Y-106859543D02*
X75492685Y-105959543D01*
X75149828Y-105959543D01*
X75064114Y-106002400D01*
X75021257Y-106045257D01*
X74978400Y-106130971D01*
X74978400Y-106259543D01*
X75021257Y-106345257D01*
X75064114Y-106388114D01*
X75149828Y-106430971D01*
X75492685Y-106430971D01*
X74121257Y-106859543D02*
X74635542Y-106859543D01*
X74378400Y-106859543D02*
X74378400Y-105959543D01*
X74464114Y-106088114D01*
X74549828Y-106173829D01*
X74635542Y-106216686D01*
X76550000Y-120907143D02*
X76850000Y-120478571D01*
X77064285Y-120907143D02*
X77064285Y-120007143D01*
X76721428Y-120007143D01*
X76635714Y-120050000D01*
X76592857Y-120092857D01*
X76550000Y-120178571D01*
X76550000Y-120307143D01*
X76592857Y-120392857D01*
X76635714Y-120435714D01*
X76721428Y-120478571D01*
X77064285Y-120478571D01*
X76207142Y-120092857D02*
X76164285Y-120050000D01*
X76078571Y-120007143D01*
X75864285Y-120007143D01*
X75778571Y-120050000D01*
X75735714Y-120092857D01*
X75692857Y-120178571D01*
X75692857Y-120264286D01*
X75735714Y-120392857D01*
X76250000Y-120907143D01*
X75692857Y-120907143D01*
X71550000Y-118007143D02*
X71850000Y-117578571D01*
X72064285Y-118007143D02*
X72064285Y-117107143D01*
X71721428Y-117107143D01*
X71635714Y-117150000D01*
X71592857Y-117192857D01*
X71550000Y-117278571D01*
X71550000Y-117407143D01*
X71592857Y-117492857D01*
X71635714Y-117535714D01*
X71721428Y-117578571D01*
X72064285Y-117578571D01*
X71250000Y-117107143D02*
X70692857Y-117107143D01*
X70992857Y-117450000D01*
X70864285Y-117450000D01*
X70778571Y-117492857D01*
X70735714Y-117535714D01*
X70692857Y-117621429D01*
X70692857Y-117835714D01*
X70735714Y-117921429D01*
X70778571Y-117964286D01*
X70864285Y-118007143D01*
X71121428Y-118007143D01*
X71207142Y-117964286D01*
X71250000Y-117921429D01*
X55407143Y-80150000D02*
X54978571Y-79850000D01*
X55407143Y-79635715D02*
X54507143Y-79635715D01*
X54507143Y-79978572D01*
X54550000Y-80064286D01*
X54592857Y-80107143D01*
X54678571Y-80150000D01*
X54807143Y-80150000D01*
X54892857Y-80107143D01*
X54935714Y-80064286D01*
X54978571Y-79978572D01*
X54978571Y-79635715D01*
X54507143Y-80921429D02*
X54507143Y-80750000D01*
X54550000Y-80664286D01*
X54592857Y-80621429D01*
X54721429Y-80535715D01*
X54892857Y-80492858D01*
X55235714Y-80492858D01*
X55321429Y-80535715D01*
X55364286Y-80578572D01*
X55407143Y-80664286D01*
X55407143Y-80835715D01*
X55364286Y-80921429D01*
X55321429Y-80964286D01*
X55235714Y-81007143D01*
X55021429Y-81007143D01*
X54935714Y-80964286D01*
X54892857Y-80921429D01*
X54850000Y-80835715D01*
X54850000Y-80664286D01*
X54892857Y-80578572D01*
X54935714Y-80535715D01*
X55021429Y-80492858D01*
X62450000Y-81807143D02*
X62750000Y-81378571D01*
X62964285Y-81807143D02*
X62964285Y-80907143D01*
X62621428Y-80907143D01*
X62535714Y-80950000D01*
X62492857Y-80992857D01*
X62450000Y-81078571D01*
X62450000Y-81207143D01*
X62492857Y-81292857D01*
X62535714Y-81335714D01*
X62621428Y-81378571D01*
X62964285Y-81378571D01*
X62150000Y-80907143D02*
X61550000Y-80907143D01*
X61935714Y-81807143D01*
X62450000Y-79807143D02*
X62750000Y-79378571D01*
X62964285Y-79807143D02*
X62964285Y-78907143D01*
X62621428Y-78907143D01*
X62535714Y-78950000D01*
X62492857Y-78992857D01*
X62450000Y-79078571D01*
X62450000Y-79207143D01*
X62492857Y-79292857D01*
X62535714Y-79335714D01*
X62621428Y-79378571D01*
X62964285Y-79378571D01*
X61935714Y-79292857D02*
X62021428Y-79250000D01*
X62064285Y-79207143D01*
X62107142Y-79121429D01*
X62107142Y-79078571D01*
X62064285Y-78992857D01*
X62021428Y-78950000D01*
X61935714Y-78907143D01*
X61764285Y-78907143D01*
X61678571Y-78950000D01*
X61635714Y-78992857D01*
X61592857Y-79078571D01*
X61592857Y-79121429D01*
X61635714Y-79207143D01*
X61678571Y-79250000D01*
X61764285Y-79292857D01*
X61935714Y-79292857D01*
X62021428Y-79335714D01*
X62064285Y-79378571D01*
X62107142Y-79464286D01*
X62107142Y-79635714D01*
X62064285Y-79721429D01*
X62021428Y-79764286D01*
X61935714Y-79807143D01*
X61764285Y-79807143D01*
X61678571Y-79764286D01*
X61635714Y-79721429D01*
X61592857Y-79635714D01*
X61592857Y-79464286D01*
X61635714Y-79378571D01*
X61678571Y-79335714D01*
X61764285Y-79292857D01*
X64607143Y-121750000D02*
X64178571Y-121450000D01*
X64607143Y-121235715D02*
X63707143Y-121235715D01*
X63707143Y-121578572D01*
X63750000Y-121664286D01*
X63792857Y-121707143D01*
X63878571Y-121750000D01*
X64007143Y-121750000D01*
X64092857Y-121707143D01*
X64135714Y-121664286D01*
X64178571Y-121578572D01*
X64178571Y-121235715D01*
X64607143Y-122178572D02*
X64607143Y-122350000D01*
X64564286Y-122435715D01*
X64521429Y-122478572D01*
X64392857Y-122564286D01*
X64221429Y-122607143D01*
X63878571Y-122607143D01*
X63792857Y-122564286D01*
X63750000Y-122521429D01*
X63707143Y-122435715D01*
X63707143Y-122264286D01*
X63750000Y-122178572D01*
X63792857Y-122135715D01*
X63878571Y-122092858D01*
X64092857Y-122092858D01*
X64178571Y-122135715D01*
X64221429Y-122178572D01*
X64264286Y-122264286D01*
X64264286Y-122435715D01*
X64221429Y-122521429D01*
X64178571Y-122564286D01*
X64092857Y-122607143D01*
X61507143Y-120921428D02*
X61078571Y-120621428D01*
X61507143Y-120407143D02*
X60607143Y-120407143D01*
X60607143Y-120750000D01*
X60650000Y-120835714D01*
X60692857Y-120878571D01*
X60778571Y-120921428D01*
X60907143Y-120921428D01*
X60992857Y-120878571D01*
X61035714Y-120835714D01*
X61078571Y-120750000D01*
X61078571Y-120407143D01*
X61507143Y-121778571D02*
X61507143Y-121264286D01*
X61507143Y-121521428D02*
X60607143Y-121521428D01*
X60735714Y-121435714D01*
X60821429Y-121350000D01*
X60864286Y-121264286D01*
X60607143Y-122335714D02*
X60607143Y-122421429D01*
X60650000Y-122507143D01*
X60692857Y-122550000D01*
X60778571Y-122592857D01*
X60950000Y-122635714D01*
X61164286Y-122635714D01*
X61335714Y-122592857D01*
X61421429Y-122550000D01*
X61464286Y-122507143D01*
X61507143Y-122421429D01*
X61507143Y-122335714D01*
X61464286Y-122250000D01*
X61421429Y-122207143D01*
X61335714Y-122164286D01*
X61164286Y-122121429D01*
X60950000Y-122121429D01*
X60778571Y-122164286D01*
X60692857Y-122207143D01*
X60650000Y-122250000D01*
X60607143Y-122335714D01*
X51155343Y-114864428D02*
X50726771Y-114564428D01*
X51155343Y-114350143D02*
X50255343Y-114350143D01*
X50255343Y-114693000D01*
X50298200Y-114778714D01*
X50341057Y-114821571D01*
X50426771Y-114864428D01*
X50555343Y-114864428D01*
X50641057Y-114821571D01*
X50683914Y-114778714D01*
X50726771Y-114693000D01*
X50726771Y-114350143D01*
X51155343Y-115721571D02*
X51155343Y-115207286D01*
X51155343Y-115464428D02*
X50255343Y-115464428D01*
X50383914Y-115378714D01*
X50469629Y-115293000D01*
X50512486Y-115207286D01*
X51155343Y-116578714D02*
X51155343Y-116064429D01*
X51155343Y-116321571D02*
X50255343Y-116321571D01*
X50383914Y-116235857D01*
X50469629Y-116150143D01*
X50512486Y-116064429D01*
X81307143Y-117578571D02*
X80878571Y-117278571D01*
X81307143Y-117064286D02*
X80407143Y-117064286D01*
X80407143Y-117407143D01*
X80450000Y-117492857D01*
X80492857Y-117535714D01*
X80578571Y-117578571D01*
X80707143Y-117578571D01*
X80792857Y-117535714D01*
X80835714Y-117492857D01*
X80878571Y-117407143D01*
X80878571Y-117064286D01*
X81307143Y-117964286D02*
X80407143Y-117964286D01*
X81307143Y-118478571D01*
X80407143Y-118478571D01*
X81307143Y-119378571D02*
X81307143Y-118864286D01*
X81307143Y-119121428D02*
X80407143Y-119121428D01*
X80535714Y-119035714D01*
X80621429Y-118950000D01*
X80664286Y-118864286D01*
X81307143Y-109778571D02*
X80878571Y-109478571D01*
X81307143Y-109264286D02*
X80407143Y-109264286D01*
X80407143Y-109607143D01*
X80450000Y-109692857D01*
X80492857Y-109735714D01*
X80578571Y-109778571D01*
X80707143Y-109778571D01*
X80792857Y-109735714D01*
X80835714Y-109692857D01*
X80878571Y-109607143D01*
X80878571Y-109264286D01*
X81307143Y-110164286D02*
X80407143Y-110164286D01*
X81307143Y-110678571D01*
X80407143Y-110678571D01*
X80492857Y-111064286D02*
X80450000Y-111107143D01*
X80407143Y-111192857D01*
X80407143Y-111407143D01*
X80450000Y-111492857D01*
X80492857Y-111535714D01*
X80578571Y-111578571D01*
X80664286Y-111578571D01*
X80792857Y-111535714D01*
X81307143Y-111021428D01*
X81307143Y-111578571D01*
X81307143Y-113778571D02*
X80878571Y-113478571D01*
X81307143Y-113264286D02*
X80407143Y-113264286D01*
X80407143Y-113607143D01*
X80450000Y-113692857D01*
X80492857Y-113735714D01*
X80578571Y-113778571D01*
X80707143Y-113778571D01*
X80792857Y-113735714D01*
X80835714Y-113692857D01*
X80878571Y-113607143D01*
X80878571Y-113264286D01*
X81307143Y-114164286D02*
X80407143Y-114164286D01*
X81307143Y-114678571D01*
X80407143Y-114678571D01*
X80407143Y-115021428D02*
X80407143Y-115578571D01*
X80750000Y-115278571D01*
X80750000Y-115407143D01*
X80792857Y-115492857D01*
X80835714Y-115535714D01*
X80921429Y-115578571D01*
X81135714Y-115578571D01*
X81221429Y-115535714D01*
X81264286Y-115492857D01*
X81307143Y-115407143D01*
X81307143Y-115150000D01*
X81264286Y-115064286D01*
X81221429Y-115021428D01*
X76507143Y-113778571D02*
X76078571Y-113478571D01*
X76507143Y-113264286D02*
X75607143Y-113264286D01*
X75607143Y-113607143D01*
X75650000Y-113692857D01*
X75692857Y-113735714D01*
X75778571Y-113778571D01*
X75907143Y-113778571D01*
X75992857Y-113735714D01*
X76035714Y-113692857D01*
X76078571Y-113607143D01*
X76078571Y-113264286D01*
X76507143Y-114164286D02*
X75607143Y-114164286D01*
X76507143Y-114678571D01*
X75607143Y-114678571D01*
X76507143Y-115150000D02*
X76507143Y-115321428D01*
X76464286Y-115407143D01*
X76421429Y-115450000D01*
X76292857Y-115535714D01*
X76121429Y-115578571D01*
X75778571Y-115578571D01*
X75692857Y-115535714D01*
X75650000Y-115492857D01*
X75607143Y-115407143D01*
X75607143Y-115235714D01*
X75650000Y-115150000D01*
X75692857Y-115107143D01*
X75778571Y-115064286D01*
X75992857Y-115064286D01*
X76078571Y-115107143D01*
X76121429Y-115150000D01*
X76164286Y-115235714D01*
X76164286Y-115407143D01*
X76121429Y-115492857D01*
X76078571Y-115535714D01*
X75992857Y-115578571D01*
X71807143Y-113750000D02*
X71378571Y-113450000D01*
X71807143Y-113235715D02*
X70907143Y-113235715D01*
X70907143Y-113578572D01*
X70950000Y-113664286D01*
X70992857Y-113707143D01*
X71078571Y-113750000D01*
X71207143Y-113750000D01*
X71292857Y-113707143D01*
X71335714Y-113664286D01*
X71378571Y-113578572D01*
X71378571Y-113235715D01*
X71807143Y-114135715D02*
X70907143Y-114135715D01*
X71807143Y-114650000D01*
X70907143Y-114650000D01*
X71807143Y-115550000D02*
X71807143Y-115035715D01*
X71807143Y-115292857D02*
X70907143Y-115292857D01*
X71035714Y-115207143D01*
X71121429Y-115121429D01*
X71164286Y-115035715D01*
X71807143Y-116407143D02*
X71807143Y-115892858D01*
X71807143Y-116150000D02*
X70907143Y-116150000D01*
X71035714Y-116064286D01*
X71121429Y-115978572D01*
X71164286Y-115892858D01*
X52979143Y-125340400D02*
X52550571Y-125040400D01*
X52979143Y-124826115D02*
X52079143Y-124826115D01*
X52079143Y-125168972D01*
X52122000Y-125254686D01*
X52164857Y-125297543D01*
X52250571Y-125340400D01*
X52379143Y-125340400D01*
X52464857Y-125297543D01*
X52507714Y-125254686D01*
X52550571Y-125168972D01*
X52550571Y-124826115D01*
X52979143Y-125726115D02*
X52079143Y-125726115D01*
X52979143Y-126240400D01*
X52079143Y-126240400D01*
X52979143Y-127140400D02*
X52979143Y-126626115D01*
X52979143Y-126883257D02*
X52079143Y-126883257D01*
X52207714Y-126797543D01*
X52293429Y-126711829D01*
X52336286Y-126626115D01*
X52164857Y-127483258D02*
X52122000Y-127526115D01*
X52079143Y-127611829D01*
X52079143Y-127826115D01*
X52122000Y-127911829D01*
X52164857Y-127954686D01*
X52250571Y-127997543D01*
X52336286Y-127997543D01*
X52464857Y-127954686D01*
X52979143Y-127440400D01*
X52979143Y-127997543D01*
X95007143Y-84750000D02*
X94578571Y-84450000D01*
X95007143Y-84235715D02*
X94107143Y-84235715D01*
X94107143Y-84578572D01*
X94150000Y-84664286D01*
X94192857Y-84707143D01*
X94278571Y-84750000D01*
X94407143Y-84750000D01*
X94492857Y-84707143D01*
X94535714Y-84664286D01*
X94578571Y-84578572D01*
X94578571Y-84235715D01*
X95007143Y-85135715D02*
X94107143Y-85135715D01*
X95007143Y-85650000D01*
X94107143Y-85650000D01*
X95007143Y-86550000D02*
X95007143Y-86035715D01*
X95007143Y-86292857D02*
X94107143Y-86292857D01*
X94235714Y-86207143D01*
X94321429Y-86121429D01*
X94364286Y-86035715D01*
X94107143Y-86850000D02*
X94107143Y-87407143D01*
X94450000Y-87107143D01*
X94450000Y-87235715D01*
X94492857Y-87321429D01*
X94535714Y-87364286D01*
X94621429Y-87407143D01*
X94835714Y-87407143D01*
X94921429Y-87364286D01*
X94964286Y-87321429D01*
X95007143Y-87235715D01*
X95007143Y-86978572D01*
X94964286Y-86892858D01*
X94921429Y-86850000D01*
X95007143Y-89650000D02*
X94578571Y-89350000D01*
X95007143Y-89135715D02*
X94107143Y-89135715D01*
X94107143Y-89478572D01*
X94150000Y-89564286D01*
X94192857Y-89607143D01*
X94278571Y-89650000D01*
X94407143Y-89650000D01*
X94492857Y-89607143D01*
X94535714Y-89564286D01*
X94578571Y-89478572D01*
X94578571Y-89135715D01*
X95007143Y-90035715D02*
X94107143Y-90035715D01*
X95007143Y-90550000D01*
X94107143Y-90550000D01*
X95007143Y-91450000D02*
X95007143Y-90935715D01*
X95007143Y-91192857D02*
X94107143Y-91192857D01*
X94235714Y-91107143D01*
X94321429Y-91021429D01*
X94364286Y-90935715D01*
X94407143Y-92221429D02*
X95007143Y-92221429D01*
X94064286Y-92007143D02*
X94707143Y-91792858D01*
X94707143Y-92350000D01*
X63707143Y-75714286D02*
X64435714Y-75714286D01*
X64521429Y-75757143D01*
X64564286Y-75800000D01*
X64607143Y-75885714D01*
X64607143Y-76057143D01*
X64564286Y-76142857D01*
X64521429Y-76185714D01*
X64435714Y-76228571D01*
X63707143Y-76228571D01*
X63707143Y-77042857D02*
X63707143Y-76871428D01*
X63750000Y-76785714D01*
X63792857Y-76742857D01*
X63921429Y-76657143D01*
X64092857Y-76614286D01*
X64435714Y-76614286D01*
X64521429Y-76657143D01*
X64564286Y-76700000D01*
X64607143Y-76785714D01*
X64607143Y-76957143D01*
X64564286Y-77042857D01*
X64521429Y-77085714D01*
X64435714Y-77128571D01*
X64221429Y-77128571D01*
X64135714Y-77085714D01*
X64092857Y-77042857D01*
X64050000Y-76957143D01*
X64050000Y-76785714D01*
X64092857Y-76700000D01*
X64135714Y-76657143D01*
X64221429Y-76614286D01*
X59707143Y-75714286D02*
X60435714Y-75714286D01*
X60521429Y-75757143D01*
X60564286Y-75800000D01*
X60607143Y-75885714D01*
X60607143Y-76057143D01*
X60564286Y-76142857D01*
X60521429Y-76185714D01*
X60435714Y-76228571D01*
X59707143Y-76228571D01*
X59707143Y-76571428D02*
X59707143Y-77171428D01*
X60607143Y-76785714D01*
X53111314Y-112559343D02*
X53111314Y-113287914D01*
X53068457Y-113373629D01*
X53025600Y-113416486D01*
X52939886Y-113459343D01*
X52768457Y-113459343D01*
X52682743Y-113416486D01*
X52639886Y-113373629D01*
X52597029Y-113287914D01*
X52597029Y-112559343D01*
X52039886Y-112945057D02*
X52125600Y-112902200D01*
X52168457Y-112859343D01*
X52211314Y-112773629D01*
X52211314Y-112730771D01*
X52168457Y-112645057D01*
X52125600Y-112602200D01*
X52039886Y-112559343D01*
X51868457Y-112559343D01*
X51782743Y-112602200D01*
X51739886Y-112645057D01*
X51697029Y-112730771D01*
X51697029Y-112773629D01*
X51739886Y-112859343D01*
X51782743Y-112902200D01*
X51868457Y-112945057D01*
X52039886Y-112945057D01*
X52125600Y-112987914D01*
X52168457Y-113030771D01*
X52211314Y-113116486D01*
X52211314Y-113287914D01*
X52168457Y-113373629D01*
X52125600Y-113416486D01*
X52039886Y-113459343D01*
X51868457Y-113459343D01*
X51782743Y-113416486D01*
X51739886Y-113373629D01*
X51697029Y-113287914D01*
X51697029Y-113116486D01*
X51739886Y-113030771D01*
X51782743Y-112987914D01*
X51868457Y-112945057D01*
X68907143Y-78635715D02*
X69635714Y-78635715D01*
X69721429Y-78678572D01*
X69764286Y-78721429D01*
X69807143Y-78807143D01*
X69807143Y-78978572D01*
X69764286Y-79064286D01*
X69721429Y-79107143D01*
X69635714Y-79150000D01*
X68907143Y-79150000D01*
X69807143Y-80050000D02*
X69807143Y-79535715D01*
X69807143Y-79792857D02*
X68907143Y-79792857D01*
X69035714Y-79707143D01*
X69121429Y-79621429D01*
X69164286Y-79535715D01*
X68907143Y-80607143D02*
X68907143Y-80692858D01*
X68950000Y-80778572D01*
X68992857Y-80821429D01*
X69078571Y-80864286D01*
X69250000Y-80907143D01*
X69464286Y-80907143D01*
X69635714Y-80864286D01*
X69721429Y-80821429D01*
X69764286Y-80778572D01*
X69807143Y-80692858D01*
X69807143Y-80607143D01*
X69764286Y-80521429D01*
X69721429Y-80478572D01*
X69635714Y-80435715D01*
X69464286Y-80392858D01*
X69250000Y-80392858D01*
X69078571Y-80435715D01*
X68992857Y-80478572D01*
X68950000Y-80521429D01*
X68907143Y-80607143D01*
M02*
